<svg xmlns="http://www.w3.org/2000/svg" viewBox="440 220 560 580" width="1120" height="1160">
<title>Pelican Bay — style A (flat geometric)</title>
<defs>
  <pattern id="pb-stripe" width="10" height="10" patternUnits="userSpaceOnUse"><rect width="5" height="10" fill="#FFFFFF"/></pattern>
</defs>
<g id="L-world"><rect x="0" y="0" width="1600" height="71" fill="#2F4A93"/><rect x="0" y="70" width="1600" height="66" fill="#44589F"/><rect x="0" y="135" width="1600" height="61" fill="#6462A3"/><rect x="0" y="195" width="1600" height="56" fill="#8E6A9E"/><rect x="0" y="250" width="1600" height="51" fill="#BB7390"/><rect x="0" y="300" width="1600" height="46" fill="#DD8282"/><rect x="0" y="345" width="1600" height="46" fill="#EF9C7C"/><rect x="0" y="390" width="1600" height="43" fill="#F8B880"/><rect x="0" y="432" width="1600" height="39" fill="#FFD39A"/><g id="pb-sun"><circle cx="1440" cy="330" r="190" fill="#FFE3A8" opacity=".12"/><circle cx="1440" cy="330" r="140" fill="#FFE3A8" opacity=".16"/>
    <circle cx="1440" cy="330" r="98" fill="#FFE3A8" opacity=".24"/><circle cx="1440" cy="330" r="66" fill="#FFF4D6"/></g><g fill="#F1A99A" opacity=".9"><rect x="1300" y="352" width="210" height="9" rx="4.5"/><rect x="1370" y="370" width="200" height="7" rx="3.5"/><rect x="1240" y="386" width="120" height="6" rx="3"/></g><g fill="#F6C9A0" opacity=".9"><rect x="130" y="150" width="200" height="6" rx="3"/><rect x="1180" y="96" width="150" height="5" rx="2.5"/><rect x="760" y="120" width="220" height="6" rx="3"/></g><g transform="translate(330 210) scale(1.05)">
    <clipPath id="pb-cl330"><rect x="-120" y="-10" width="240" height="30" rx="15"/><circle cx="-60" cy="-12" r="30"/><circle cx="0" cy="-30" r="42"/><circle cx="58" cy="-10" r="30"/></clipPath>
    <g fill="#F1A99A"><rect x="-120" y="-10" width="240" height="30" rx="15"/><circle cx="-60" cy="-12" r="30"/><circle cx="0" cy="-30" r="42"/><circle cx="58" cy="-10" r="30"/></g>
    <g clip-path="url(#pb-cl330)">
      <rect x="-160" y="4" width="320" height="40" fill="#C9838F"/>
      <circle cx="60" cy="-60" r="64" fill="#FFD7B0"/>
      <circle cx="104" cy="-26" r="44" fill="#FFD7B0"/>
    </g>
  </g><g transform="translate(960 250) scale(0.8)">
    <clipPath id="pb-cl960"><rect x="-90" y="-6" width="180" height="22" rx="11"/><circle cx="-30" cy="-12" r="22"/><circle cx="16" cy="-20" r="28"/></clipPath>
    <g fill="#F1A99A"><rect x="-90" y="-6" width="180" height="22" rx="11"/><circle cx="-30" cy="-12" r="22"/><circle cx="16" cy="-20" r="28"/></g>
    <g clip-path="url(#pb-cl960)">
      <rect x="-160" y="4" width="320" height="40" fill="#C9838F"/>
      <circle cx="34" cy="-40" r="44" fill="#FFD7B0"/>
      <circle cx="70" cy="-14" r="30" fill="#FFD7B0"/>
    </g>
  </g><g transform="translate(1180 150) scale(0.55)">
    <clipPath id="pb-cl1180"><rect x="-90" y="-6" width="180" height="22" rx="11"/><circle cx="-30" cy="-12" r="22"/><circle cx="16" cy="-20" r="28"/></clipPath>
    <g fill="#F1A99A"><rect x="-90" y="-6" width="180" height="22" rx="11"/><circle cx="-30" cy="-12" r="22"/><circle cx="16" cy="-20" r="28"/></g>
    <g clip-path="url(#pb-cl1180)">
      <rect x="-160" y="4" width="320" height="40" fill="#C9838F"/>
      <circle cx="34" cy="-40" r="44" fill="#FFD7B0"/>
      <circle cx="70" cy="-14" r="30" fill="#FFD7B0"/>
    </g>
  </g><g transform="translate(610 105) scale(0.42)">
    <clipPath id="pb-cl610"><rect x="-90" y="-6" width="180" height="22" rx="11"/><circle cx="-30" cy="-12" r="22"/><circle cx="16" cy="-20" r="28"/></clipPath>
    <g fill="#F1A99A"><rect x="-90" y="-6" width="180" height="22" rx="11"/><circle cx="-30" cy="-12" r="22"/><circle cx="16" cy="-20" r="28"/></g>
    <g clip-path="url(#pb-cl610)">
      <rect x="-160" y="4" width="320" height="40" fill="#C9838F"/>
      <circle cx="34" cy="-40" r="44" fill="#FFD7B0"/>
      <circle cx="70" cy="-14" r="30" fill="#FFD7B0"/>
    </g>
  </g><path transform="translate(1010 175) scale(1.1 1.1)" d="M-14,0 C-10,-6 -4,-6 0,1 C4,-6 10,-6 14,0 C10,-3 4,-2 0,4 C-4,-2 -10,-3 -14,0Z" fill="#4A3F6B"/><path transform="translate(1052 150) scale(0.8 0.8)" d="M-14,0 C-10,-6 -4,-6 0,1 C4,-6 10,-6 14,0 C10,-3 4,-2 0,4 C-4,-2 -10,-3 -14,0Z" fill="#4A3F6B"/><path transform="translate(1090 188) scale(0.65 0.65)" d="M-14,0 C-10,-6 -4,-6 0,1 C4,-6 10,-6 14,0 C10,-3 4,-2 0,4 C-4,-2 -10,-3 -14,0Z" fill="#4A3F6B"/><path transform="translate(430 120) scale(-0.7 0.7)" d="M-14,0 C-10,-6 -4,-6 0,1 C4,-6 10,-6 14,0 C10,-3 4,-2 0,4 C-4,-2 -10,-3 -14,0Z" fill="#4A3F6B"/><g id="pb-title" transform="translate(64 70)">
      <text x="0" y="0" font-family="DejaVu Sans, sans-serif" font-weight="700" font-size="30" letter-spacing="9" fill="#FFF1DC">PELICAN BAY</text>
      <rect x="2" y="16" width="44" height="4" rx="2" fill="#F9C74F"/>
      <text x="58" y="26" font-family="WenQuanYi Zen Hei, sans-serif" font-size="18" letter-spacing="6" fill="#FFE3C0" opacity=".95">鹈鹕湾</text>
    </g><path d="M0,470 L0,418 C60,404 110,396 170,408 C240,420 300,396 380,410 C450,422 500,440 560,470Z" fill="#9C78A4"/><path d="M1180,470 C1230,452 1270,448 1320,456 C1360,446 1410,448 1470,460 C1510,462 1550,466 1580,470Z" fill="#9C78A4" opacity=".9"/><rect x="0" y="470" width="1600" height="17" fill="#8A8DC0"/><rect x="0" y="486" width="1600" height="20" fill="#7481B8"/><rect x="0" y="505" width="1600" height="23" fill="#5F74AA"/><rect x="0" y="527" width="1600" height="26" fill="#4D679B"/><rect x="0" y="552" width="1600" height="27" fill="#3E5B8E"/><rect x="0" y="578" width="1600" height="27" fill="#324F83"/><rect x="0" y="604" width="1600" height="37" fill="#2E4F7F"/><rect x="1429.4" y="474" width="14" height="1.6" rx="1" fill="#FFE0A6" opacity="0.6"/><rect x="1426.1" y="475" width="15.3" height="1.7" rx="1" fill="#FFF4D6" opacity="0.8"/><rect x="1416.9" y="476.4" width="14.9" height="1.7" rx="1" fill="#FFE0A6" opacity="0.9"/><rect x="1423.9" y="478" width="14.3" height="1.7" rx="1" fill="#FFF4D6" opacity="0.9"/><rect x="1400.2" y="479.9" width="15.1" height="1.7" rx="1" fill="#FFE0A6" opacity="0.9"/><rect x="1436.4" y="481.8" width="16.1" height="1.7" rx="1" fill="#FFE0A6" opacity="0.7"/><rect x="1457.5" y="483.9" width="15.3" height="1.8" rx="1" fill="#FFE0A6" opacity="0.6"/><rect x="1450.6" y="486.1" width="16.8" height="1.8" rx="1" fill="#FFE0A6" opacity="0.7"/><rect x="1432.6" y="488.4" width="18.9" height="1.8" rx="1" fill="#FFE0A6" opacity="0.8"/><rect x="1412.5" y="490.8" width="20" height="1.8" rx="1" fill="#FFF4D6" opacity="0.6"/><rect x="1461.9" y="493.3" width="19" height="1.9" rx="1" fill="#FFF4D6" opacity="0.7"/><rect x="1464.2" y="495.8" width="15.3" height="1.9" rx="1" fill="#FFF4D6" opacity="0.9"/><rect x="1462.1" y="498.4" width="22.5" height="1.9" rx="1" fill="#FFE0A6" opacity="0.7"/><rect x="1374.9" y="501.1" width="19.7" height="2" rx="1" fill="#FFF4D6" opacity="0.9"/><rect x="1476.5" y="503.8" width="17.6" height="2" rx="1" fill="#FFE0A6" opacity="0.8"/><rect x="1434" y="506.6" width="24.4" height="2" rx="1" fill="#FFF4D6" opacity="0.8"/><rect x="1419.3" y="509.5" width="24.1" height="2.1" rx="1" fill="#FFF4D6" opacity="1"/><rect x="1472.7" y="512.4" width="19.4" height="2.1" rx="1" fill="#FFF4D6" opacity="0.7"/><rect x="1369.2" y="515.3" width="14.7" height="2.1" rx="1" fill="#FFF4D6" opacity="0.6"/><rect x="1437.9" y="518.4" width="19.1" height="2.2" rx="1" fill="#FFE0A6" opacity="0.8"/><rect x="1413.7" y="521.4" width="15.6" height="2.2" rx="1" fill="#FFE0A6" opacity="0.8"/><rect x="1495.7" y="524.5" width="23" height="2.3" rx="1" fill="#FFE0A6" opacity="1"/><rect x="1469.3" y="527.7" width="31.2" height="2.3" rx="1" fill="#FFF4D6" opacity="0.7"/><rect x="1449.9" y="530.9" width="29.7" height="2.3" rx="1" fill="#FFF4D6" opacity="0.7"/><rect x="1385.2" y="534.1" width="24.2" height="2.4" rx="1" fill="#FFF4D6" opacity="0.8"/><rect x="1359.8" y="537.4" width="32.4" height="2.4" rx="1" fill="#FFE0A6" opacity="1"/><rect x="1386" y="540.7" width="28.7" height="2.4" rx="1" fill="#FFF4D6" opacity="0.7"/><rect x="1420" y="544" width="33.5" height="2.5" rx="1" fill="#FFF4D6" opacity="0.7"/><rect x="1491.3" y="547.4" width="16.3" height="2.5" rx="1" fill="#FFF4D6" opacity="0.7"/><rect x="1391" y="550.9" width="32.4" height="2.6" rx="1" fill="#FFF4D6" opacity="0.7"/><rect x="1331.4" y="554.3" width="14" height="2.6" rx="1" fill="#FFE0A6" opacity="0.8"/><rect x="1496.3" y="557.8" width="21.8" height="2.7" rx="1" fill="#FFE0A6" opacity="0.8"/><rect x="1417.9" y="561.3" width="41.1" height="2.7" rx="1" fill="#FFF4D6" opacity="0.6"/><rect x="1422.5" y="564.9" width="32.6" height="2.7" rx="1" fill="#FFE0A6" opacity="0.7"/><rect x="1454.8" y="568.5" width="28.7" height="2.8" rx="1" fill="#FFE0A6" opacity="0.7"/><rect x="1427.8" y="572.1" width="29.1" height="2.8" rx="1" fill="#FFE0A6" opacity="0.8"/><rect x="1419.2" y="575.8" width="39.9" height="2.9" rx="1" fill="#FFF4D6" opacity="0.6"/><rect x="1387.8" y="579.5" width="39.4" height="2.9" rx="1" fill="#FFE0A6" opacity="0.8"/><rect x="1346.6" y="583.2" width="27.1" height="3" rx="1" fill="#FFF4D6" opacity="1"/><rect x="1335.1" y="587" width="27.8" height="3" rx="1" fill="#FFF4D6" opacity="0.9"/><rect x="1347.9" y="590.7" width="40.3" height="3" rx="1" fill="#FFE0A6" opacity="0.7"/><rect x="1546.1" y="594.5" width="25.7" height="3.1" rx="1" fill="#FFF4D6" opacity="0.8"/><rect x="1428.8" y="598.4" width="30.3" height="3.1" rx="1" fill="#FFE0A6" opacity="0.9"/><rect x="1517.4" y="602.2" width="14.6" height="3.2" rx="1" fill="#FFF4D6" opacity="0.6"/><rect x="1412.8" y="606.1" width="46" height="3.2" rx="1" fill="#FFF4D6" opacity="0.6"/><rect x="1563.6" y="610.1" width="49.5" height="3.3" rx="1" fill="#FFF4D6" opacity="0.7"/><rect x="478.1" y="510.5" width="63.3" height="2" rx="1" fill="#A9A6D0" opacity="0.5"/><rect x="610.3" y="574.7" width="42.9" height="2" rx="1" fill="#A9A6D0" opacity="0.4"/><rect x="1291.1" y="558.5" width="52" height="2" rx="1" fill="#A9A6D0" opacity="0.3"/><rect x="1248.2" y="543.2" width="88.3" height="2" rx="1" fill="#A9A6D0" opacity="0.3"/><rect x="941.6" y="555.7" width="90.1" height="2" rx="1" fill="#A9A6D0" opacity="0.4"/><rect x="237.2" y="532" width="93.8" height="2" rx="1" fill="#A9A6D0" opacity="0.4"/><rect x="720.6" y="507.2" width="54.1" height="2" rx="1" fill="#A9A6D0" opacity="0.4"/><rect x="35.4" y="584.4" width="69.3" height="2" rx="1" fill="#A9A6D0" opacity="0.5"/><rect x="1003.5" y="580.9" width="41.1" height="2" rx="1" fill="#A9A6D0" opacity="0.3"/><rect x="1007.3" y="574.1" width="36.8" height="2" rx="1" fill="#A9A6D0" opacity="0.5"/><rect x="491.9" y="585.2" width="54.1" height="2" rx="1" fill="#A9A6D0" opacity="0.4"/><rect x="107.9" y="513.5" width="66.7" height="2" rx="1" fill="#A9A6D0" opacity="0.5"/><rect x="690.5" y="600.2" width="96.8" height="2" rx="1" fill="#A9A6D0" opacity="0.5"/><rect x="1178.1" y="532.8" width="63.1" height="2" rx="1" fill="#A9A6D0" opacity="0.4"/><rect x="1088.1" y="568.6" width="40" height="2" rx="1" fill="#A9A6D0" opacity="0.5"/><rect x="424.7" y="493.8" width="99.3" height="2" rx="1" fill="#A9A6D0" opacity="0.5"/><rect x="1013.8" y="594.9" width="30.5" height="2" rx="1" fill="#A9A6D0" opacity="0.3"/><rect x="0.9" y="547.8" width="65.8" height="2" rx="1" fill="#A9A6D0" opacity="0.4"/><rect x="632" y="547.8" width="48.1" height="2" rx="1" fill="#A9A6D0" opacity="0.3"/><rect x="150.5" y="579.8" width="32.8" height="2" rx="1" fill="#A9A6D0" opacity="0.5"/><rect x="1202.9" y="536.4" width="54.7" height="2" rx="1" fill="#A9A6D0" opacity="0.4"/><rect x="360.2" y="590.1" width="63.2" height="2" rx="1" fill="#A9A6D0" opacity="0.4"/><rect x="1249.8" y="523.7" width="73" height="2" rx="1" fill="#A9A6D0" opacity="0.3"/><rect x="809.3" y="552" width="75.3" height="2" rx="1" fill="#A9A6D0" opacity="0.3"/><rect x="161.8" y="506.7" width="37.7" height="2" rx="1" fill="#A9A6D0" opacity="0.5"/><rect x="22.1" y="567.3" width="65.1" height="2" rx="1" fill="#A9A6D0" opacity="0.4"/><path d="M0,560 L0,440 C30,432 70,424 110,428 L150,424 C190,420 220,430 250,446 C290,468 320,500 360,522 C392,540 420,552 440,566Z" fill="#5C4B7C"/>
    <path d="M150,424 C190,420 220,430 250,446 C290,468 320,500 360,522 C392,540 420,552 440,566 L380,566 C340,540 300,500 262,470 C230,446 200,432 150,424Z" fill="#8E6F95"/>
    <path d="M0,500 C60,510 120,520 180,540 L200,566 L0,566Z" fill="#473C69"/>
    <path d="M430,562 q-30,-8 -60,0 q-30,-6 -60,2 L310,570 L440,570Z" fill="#FDEBDD" opacity=".7"/><g id="pb-lighthouse">
    
    <path d="M220,441 L226,345 L246,345 L252,441Z" fill="#FBF1E4"/>
    <path d="M238,441 L239,345 L246,345 L252,441Z" fill="#E8C7BC"/>
    <path d="M221.5,419 L222.7,399 L249.3,399 L250.5,419Z M223.8,379 L224.8,361 L247.2,361 L248.2,379Z" fill="#E4484F"/>
    <rect x="220" y="339" width="32" height="6" rx="1" fill="#241F33"/>
    <rect x="228" y="323" width="16" height="16" fill="#FFE9A8"/>
    <circle cx="236" cy="331" r="18" fill="#FFE9A8" opacity=".3"/>
    <path d="M226,323 L236,311 L246,323Z" fill="#E4484F"/>
    <rect x="233" y="411" width="6" height="10" rx="3" fill="#241F33"/>
    <path d="M202,443 L206,427 L222,427 L226,443Z" fill="#FBF1E4"/><path d="M200,427 L214,417 L228,427Z" fill="#B3334A"/>
  </g><g id="pb-boat">
    <rect x="1104" y="552" width="92" height="4" rx="2" fill="#FFE0A6" opacity=".5"/>
    <path d="M1106,540 L1198,540 L1184,552 L1114,552Z" fill="#3E3462"/>
    <rect x="1148.5" y="444" width="3" height="96" fill="#3E3462"/>
    <path d="M1146,448 L1146,534 L1098,534Z" fill="#F6D9C2"/>
    <path d="M1154,454 L1154,534 L1194,534Z" fill="#E4484F"/>
    <path d="M1154,454 L1154,534 L1162,534Z" fill="#B3334A"/>
    <path d="M1149,444 l12,4 l-12,4Z" fill="#F9C74F"/>
  </g>
  <g transform="translate(1010 488) scale(.33)"><path d="M-44,0 L48,0 L34,12 L-36,12Z" fill="#3E3462"/><path d="M-4,-92 L-4,-6 L-52,-6Z" fill="#F6D9C2"/><path d="M4,-86 L4,-6 L44,-6Z" fill="#F6D9C2" opacity=".8"/></g><path d="M0,614 C200,604 420,612 700,606 C980,600 1300,610 1600,604 L1600,662 L0,662Z" fill="#EEB985"/>
    <path d="M0,618 C200,608 420,616 700,610 C980,604 1300,614 1600,608 L1600,620 C1300,626 980,616 700,622 C420,628 200,620 0,628Z" fill="#C98C74"/>
    <path d="M0,612 C120,604 200,614 320,606 C440,600 520,612 660,604 C800,598 900,610 1040,602 C1180,596 1300,608 1440,600 C1520,598 1560,604 1600,600" fill="none" stroke="#FDEBDD" stroke-width="4" stroke-linecap="round"/>
    <path d="M60,596 L180,596 M520,594 L610,594 M880,592 L1000,592 M1240,590 L1340,590" stroke="#FDEBDD" stroke-width="2.4" stroke-linecap="round" opacity=".7"/>
    <path d="M0,648 C300,642 700,650 1000,644 C1300,638 1450,646 1600,642 L1600,662 L0,662Z" fill="#D99A70"/><g transform="translate(250 644)"><rect x="-19" y="-44" width="38" height="44" fill="#E4484F"/>
      <rect x="-19" y="-44" width="38" height="44" fill="url(#pb-stripe)" opacity=".35"/>
      <rect x="4" y="-44" width="15" height="44" fill="#000" opacity=".12"/>
      <path d="M-24,-42 L0,-62 L24,-42Z" fill="#a13a45"/><rect x="-7" y="-26" width="14" height="26" fill="#7a3140"/></g><g transform="translate(300 644)"><rect x="-19" y="-44" width="38" height="44" fill="#1F8A8A"/>
      <rect x="-19" y="-44" width="38" height="44" fill="url(#pb-stripe)" opacity=".35"/>
      <rect x="4" y="-44" width="15" height="44" fill="#000" opacity=".12"/>
      <path d="M-24,-42 L0,-62 L24,-42Z" fill="#21656c"/><rect x="-7" y="-26" width="14" height="26" fill="#224f5a"/></g><g transform="translate(350 644)"><rect x="-19" y="-44" width="38" height="44" fill="#F2B84B"/>
      <rect x="-19" y="-44" width="38" height="44" fill="url(#pb-stripe)" opacity=".35"/>
      <rect x="4" y="-44" width="15" height="44" fill="#000" opacity=".12"/>
      <path d="M-24,-42 L0,-62 L24,-42Z" fill="#aa8243"/><rect x="-7" y="-26" width="14" height="26" fill="#81643e"/></g><g transform="translate(400 644)"><rect x="-19" y="-44" width="38" height="44" fill="#F6E6D0"/>
      <rect x="-19" y="-44" width="38" height="44" fill="url(#pb-stripe)" opacity=".35"/>
      <rect x="4" y="-44" width="15" height="44" fill="#000" opacity=".12"/>
      <path d="M-24,-42 L0,-62 L24,-42Z" fill="#ada099"/><rect x="-7" y="-26" width="14" height="26" fill="#83797a"/></g><path d="M0,662 L1600,662 L1600,700 L0,700Z" fill="#8FA35C"/>
    <path d="M0,662 L1600,662 L1600,670 L0,670Z" fill="#B8B868"/><path d="M-5,679.8 L-2,668.1 L0,679.8 L3,670.5 L5,679.8Z" fill="#B8B868"/><path d="M952.3,687.7 L955.3,677.7 L957.3,687.7 L960.3,679.7 L962.3,687.7Z" fill="#B8B868"/><path d="M55.6,692.1 L58.6,682 L60.6,692.1 L63.6,684 L65.6,692.1Z" fill="#5E7A52"/><path d="M783.6,671.1 L786.6,660.9 L788.6,671.1 L791.6,662.9 L793.6,671.1Z" fill="#5E7A52"/><path d="M16.5,668.7 L19.5,658.6 L21.5,668.7 L24.5,660.6 L26.5,668.7Z" fill="#B8B868"/><path d="M398.9,669.8 L401.9,651.1 L403.9,669.8 L406.9,654.8 L408.9,669.8Z" fill="#5E7A52"/><path d="M856.6,685.4 L859.6,673.6 L861.6,685.4 L864.6,675.9 L866.6,685.4Z" fill="#5E7A52"/><path d="M391.8,671.1 L394.8,652.9 L396.8,671.1 L399.8,656.5 L401.8,671.1Z" fill="#B8B868"/><path d="M1254.8,672.3 L1257.8,661.4 L1259.8,672.3 L1262.8,663.5 L1264.8,672.3Z" fill="#5E7A52"/><path d="M1431.7,676.1 L1434.7,654.5 L1436.7,676.1 L1439.7,658.8 L1441.7,676.1Z" fill="#B8B868"/><path d="M1180.8,696.4 L1183.8,686.1 L1185.8,696.4 L1188.8,688.1 L1190.8,696.4Z" fill="#B8B868"/><path d="M1522.3,674.5 L1525.3,654 L1527.3,674.5 L1530.3,658.1 L1532.3,674.5Z" fill="#5E7A52"/><path d="M1304,677.3 L1307,665.1 L1309,677.3 L1312,667.5 L1314,677.3Z" fill="#B8B868"/><path d="M1136.3,692.7 L1139.3,683.7 L1141.3,692.7 L1144.3,685.5 L1146.3,692.7Z" fill="#B8B868"/><path d="M730.3,688.8 L733.3,670.6 L735.3,688.8 L738.3,674.2 L740.3,688.8Z" fill="#B8B868"/><path d="M1137.3,683.4 L1140.3,667.7 L1142.3,683.4 L1145.3,670.9 L1147.3,683.4Z" fill="#5E7A52"/><path d="M1530.9,682.5 L1533.9,663.3 L1535.9,682.5 L1538.9,667.1 L1540.9,682.5Z" fill="#B8B868"/><path d="M1344.3,674.6 L1347.3,659.6 L1349.3,674.6 L1352.3,662.6 L1354.3,674.6Z" fill="#B8B868"/><path d="M1325,690.2 L1328,674 L1330,690.2 L1333,677.2 L1335,690.2Z" fill="#B8B868"/><path d="M1311.7,672.5 L1314.7,660.5 L1316.7,672.5 L1319.7,662.9 L1321.7,672.5Z" fill="#B8B868"/><path d="M768.5,679.3 L771.5,670.6 L773.5,679.3 L776.5,672.3 L778.5,679.3Z" fill="#B8B868"/><path d="M962.6,694.7 L965.6,683.7 L967.6,694.7 L970.6,685.9 L972.6,694.7Z" fill="#B8B868"/><path d="M1592.4,688 L1595.4,670.2 L1597.4,688 L1600.4,673.7 L1602.4,688Z" fill="#5E7A52"/><path d="M79.9,684.2 L82.9,665.4 L84.9,684.2 L87.9,669.1 L89.9,684.2Z" fill="#5E7A52"/><path d="M373,683.7 L376,664.4 L378,683.7 L381,668.3 L383,683.7Z" fill="#B8B868"/><path d="M974.1,680.1 L977.1,660 L979.1,680.1 L982.1,664.1 L984.1,680.1Z" fill="#5E7A52"/><path d="M732.9,689.4 L735.9,675.7 L737.9,689.4 L740.9,678.5 L742.9,689.4Z" fill="#B8B868"/><path d="M960.4,682.9 L963.4,662.7 L965.4,682.9 L968.4,666.8 L970.4,682.9Z" fill="#B8B868"/><path d="M1057,688.2 L1060,667.9 L1062,688.2 L1065,672 L1067,688.2Z" fill="#5E7A52"/><path d="M761.9,687.1 L764.9,677.1 L766.9,687.1 L769.9,679.1 L771.9,687.1Z" fill="#B8B868"/><path d="M431.8,692.7 L434.8,684.6 L436.8,692.7 L439.8,686.2 L441.8,692.7Z" fill="#B8B868"/><path d="M124,671.9 L127,652.5 L129,671.9 L132,656.4 L134,671.9Z" fill="#5E7A52"/><path d="M863.3,696.6 L866.3,679.3 L868.3,696.6 L871.3,682.8 L873.3,696.6Z" fill="#5E7A52"/><path d="M716.6,669.3 L719.6,659.1 L721.6,669.3 L724.6,661.2 L726.6,669.3Z" fill="#B8B868"/><path d="M793.8,681.3 L796.8,662.6 L798.8,681.3 L801.8,666.3 L803.8,681.3Z" fill="#5E7A52"/><path d="M1227.5,694 L1230.5,676.6 L1232.5,694 L1235.5,680.1 L1237.5,694Z" fill="#B8B868"/><path d="M1514.9,674.8 L1517.9,660.8 L1519.9,674.8 L1522.9,663.6 L1524.9,674.8Z" fill="#5E7A52"/><path d="M1205.2,682 L1208.2,668.5 L1210.2,682 L1213.2,671.2 L1215.2,682Z" fill="#5E7A52"/><path d="M599.9,686 L602.9,664.6 L604.9,686 L607.9,668.9 L609.9,686Z" fill="#5E7A52"/><path d="M603.2,696.6 L606.2,676.5 L608.2,696.6 L611.2,680.5 L613.2,696.6Z" fill="#B8B868"/><path d="M1184.6,680.9 L1187.6,670.5 L1189.6,680.9 L1192.6,672.6 L1194.6,680.9Z" fill="#5E7A52"/><path d="M131.2,689.2 L134.2,677.2 L136.2,689.2 L139.2,679.6 L141.2,689.2Z" fill="#B8B868"/><path d="M1342.9,674.9 L1345.9,661.4 L1347.9,674.9 L1350.9,664.1 L1352.9,674.9Z" fill="#5E7A52"/><path d="M437.4,682.6 L440.4,671.6 L442.4,682.6 L445.4,673.8 L447.4,682.6Z" fill="#B8B868"/><path d="M1209.7,680.2 L1212.7,667.3 L1214.7,680.2 L1217.7,669.8 L1219.7,680.2Z" fill="#B8B868"/><path d="M72.7,678.7 L75.7,664.7 L77.7,678.7 L80.7,667.5 L82.7,678.7Z" fill="#5E7A52"/><path d="M1522.9,687.4 L1525.9,678.8 L1527.9,687.4 L1530.9,680.5 L1532.9,687.4Z" fill="#5E7A52"/><path d="M1195.6,685.5 L1198.6,671.7 L1200.6,685.5 L1203.6,674.4 L1205.6,685.5Z" fill="#5E7A52"/><path d="M1276.9,681.6 L1279.9,669.8 L1281.9,681.6 L1284.9,672.2 L1286.9,681.6Z" fill="#B8B868"/><path d="M1361.6,694.9 L1364.6,682.5 L1366.6,694.9 L1369.6,685 L1371.6,694.9Z" fill="#B8B868"/><path d="M102.1,671.2 L105.1,649.7 L107.1,671.2 L110.1,654 L112.1,671.2Z" fill="#5E7A52"/><path d="M881.1,694 L884.1,677.5 L886.1,694 L889.1,680.8 L891.1,694Z" fill="#5E7A52"/><path d="M491.5,675.3 L494.5,657 L496.5,675.3 L499.5,660.7 L501.5,675.3Z" fill="#5E7A52"/><path d="M507.2,673.7 L510.2,657.2 L512.2,673.7 L515.2,660.5 L517.2,673.7Z" fill="#B8B868"/><path d="M638.5,671.6 L641.5,660.4 L643.5,671.6 L646.5,662.7 L648.5,671.6Z" fill="#B8B868"/><path d="M1047.9,685.2 L1050.9,671.8 L1052.9,685.2 L1055.9,674.5 L1057.9,685.2Z" fill="#B8B868"/><path d="M219.4,682 L222.4,674 L224.4,682 L227.4,675.6 L229.4,682Z" fill="#B8B868"/><path d="M952.9,690.5 L955.9,674.1 L957.9,690.5 L960.9,677.4 L962.9,690.5Z" fill="#5E7A52"/><path d="M1006,680.5 L1009,667.6 L1011,680.5 L1014,670.2 L1016,680.5Z" fill="#5E7A52"/><path d="M1029.6,678.1 L1032.6,656.9 L1034.6,678.1 L1037.6,661.1 L1039.6,678.1Z" fill="#5E7A52"/><path d="M1026.2,677.6 L1029.2,663.9 L1031.2,677.6 L1034.2,666.7 L1036.2,677.6Z" fill="#B8B868"/><path d="M147.8,687 L150.8,665.1 L152.8,687 L155.8,669.5 L157.8,687Z" fill="#B8B868"/><path d="M1421.3,693.5 L1424.3,685.4 L1426.3,693.5 L1429.3,687.1 L1431.3,693.5Z" fill="#B8B868"/><path d="M507.1,673.5 L510.1,652.1 L512.1,673.5 L515.1,656.3 L517.1,673.5Z" fill="#B8B868"/><path d="M71,669.3 L74,652.6 L76,669.3 L79,656 L81,669.3Z" fill="#5E7A52"/><path d="M197.8,682.6 L200.8,670.6 L202.8,682.6 L205.8,673 L207.8,682.6Z" fill="#B8B868"/><path d="M462.2,694.7 L465.2,677.7 L467.2,694.7 L470.2,681.1 L472.2,694.7Z" fill="#5E7A52"/><path d="M384.1,673 L387.1,653 L389.1,673 L392.1,657 L394.1,673Z" fill="#5E7A52"/><path d="M266.3,692.2 L269.3,683.2 L271.3,692.2 L274.3,685 L276.3,692.2Z" fill="#5E7A52"/><path d="M524,678.5 L527,666.8 L529,678.5 L532,669.2 L534,678.5Z" fill="#5E7A52"/><g id="pb-rail"><rect x="0" y="676" width="1600" height="4" fill="#FBEBD8"/><rect x="0" y="688" width="1600" height="3" fill="#E4C8B8"/><rect x="20" y="670" width="6" height="30" rx="1.5" fill="#FBEBD8"/><rect x="23" y="670" width="3" height="30" fill="#D7B8AC"/><rect x="92" y="670" width="6" height="30" rx="1.5" fill="#FBEBD8"/><rect x="95" y="670" width="3" height="30" fill="#D7B8AC"/><rect x="164" y="670" width="6" height="30" rx="1.5" fill="#FBEBD8"/><rect x="167" y="670" width="3" height="30" fill="#D7B8AC"/><rect x="236" y="670" width="6" height="30" rx="1.5" fill="#FBEBD8"/><rect x="239" y="670" width="3" height="30" fill="#D7B8AC"/><rect x="308" y="670" width="6" height="30" rx="1.5" fill="#FBEBD8"/><rect x="311" y="670" width="3" height="30" fill="#D7B8AC"/><rect x="380" y="670" width="6" height="30" rx="1.5" fill="#FBEBD8"/><rect x="383" y="670" width="3" height="30" fill="#D7B8AC"/><rect x="452" y="670" width="6" height="30" rx="1.5" fill="#FBEBD8"/><rect x="455" y="670" width="3" height="30" fill="#D7B8AC"/><rect x="524" y="670" width="6" height="30" rx="1.5" fill="#FBEBD8"/><rect x="527" y="670" width="3" height="30" fill="#D7B8AC"/><rect x="596" y="670" width="6" height="30" rx="1.5" fill="#FBEBD8"/><rect x="599" y="670" width="3" height="30" fill="#D7B8AC"/><rect x="668" y="670" width="6" height="30" rx="1.5" fill="#FBEBD8"/><rect x="671" y="670" width="3" height="30" fill="#D7B8AC"/><rect x="740" y="670" width="6" height="30" rx="1.5" fill="#FBEBD8"/><rect x="743" y="670" width="3" height="30" fill="#D7B8AC"/><rect x="812" y="670" width="6" height="30" rx="1.5" fill="#FBEBD8"/><rect x="815" y="670" width="3" height="30" fill="#D7B8AC"/><rect x="884" y="670" width="6" height="30" rx="1.5" fill="#FBEBD8"/><rect x="887" y="670" width="3" height="30" fill="#D7B8AC"/><rect x="956" y="670" width="6" height="30" rx="1.5" fill="#FBEBD8"/><rect x="959" y="670" width="3" height="30" fill="#D7B8AC"/><rect x="1028" y="670" width="6" height="30" rx="1.5" fill="#FBEBD8"/><rect x="1031" y="670" width="3" height="30" fill="#D7B8AC"/><rect x="1100" y="670" width="6" height="30" rx="1.5" fill="#FBEBD8"/><rect x="1103" y="670" width="3" height="30" fill="#D7B8AC"/><rect x="1172" y="670" width="6" height="30" rx="1.5" fill="#FBEBD8"/><rect x="1175" y="670" width="3" height="30" fill="#D7B8AC"/><rect x="1244" y="670" width="6" height="30" rx="1.5" fill="#FBEBD8"/><rect x="1247" y="670" width="3" height="30" fill="#D7B8AC"/><rect x="1316" y="670" width="6" height="30" rx="1.5" fill="#FBEBD8"/><rect x="1319" y="670" width="3" height="30" fill="#D7B8AC"/><rect x="1388" y="670" width="6" height="30" rx="1.5" fill="#FBEBD8"/><rect x="1391" y="670" width="3" height="30" fill="#D7B8AC"/><rect x="1460" y="670" width="6" height="30" rx="1.5" fill="#FBEBD8"/><rect x="1463" y="670" width="3" height="30" fill="#D7B8AC"/><rect x="1532" y="670" width="6" height="30" rx="1.5" fill="#FBEBD8"/><rect x="1535" y="670" width="3" height="30" fill="#D7B8AC"/></g><rect x="0" y="700" width="1600" height="150" fill="#4C4466"/>
    <rect x="0" y="700" width="1600" height="26" fill="#5B5174"/>
    <rect x="0" y="800" width="1600" height="50" fill="#433C5C"/>
    <rect x="0" y="700" width="1600" height="4" fill="#B79A92"/><rect x="-40" y="752" width="78" height="6" rx="3" fill="#F6E4C2" opacity=".85"/><rect x="117.1" y="752" width="78" height="6" rx="3" fill="#F6E4C2" opacity=".85"/><rect x="274.2" y="752" width="78" height="6" rx="3" fill="#F6E4C2" opacity=".85"/><rect x="431.2" y="752" width="78" height="6" rx="3" fill="#F6E4C2" opacity=".85"/><rect x="588.3" y="752" width="78" height="6" rx="3" fill="#F6E4C2" opacity=".85"/><rect x="745.4" y="752" width="78" height="6" rx="3" fill="#F6E4C2" opacity=".85"/><rect x="902.5" y="752" width="78" height="6" rx="3" fill="#F6E4C2" opacity=".85"/><rect x="1059.6" y="752" width="78" height="6" rx="3" fill="#F6E4C2" opacity=".85"/><rect x="1216.6" y="752" width="78" height="6" rx="3" fill="#F6E4C2" opacity=".85"/><rect x="1373.7" y="752" width="78" height="6" rx="3" fill="#F6E4C2" opacity=".85"/><rect x="1530.8" y="752" width="78" height="6" rx="3" fill="#F6E4C2" opacity=".85"/><rect x="0" y="834" width="1600" height="4" fill="#F6E4C2" opacity=".7"/><rect x="0.1" y="798.1" width="9.2" height="1.6" rx=".8" fill="#3E3754" opacity=".7"/><rect x="1062.1" y="719.3" width="4.9" height="1.6" rx=".8" fill="#3E3754" opacity=".7"/><rect x="634.4" y="800.3" width="10.3" height="1.6" rx=".8" fill="#6A5F84" opacity=".7"/><rect x="247.7" y="730.2" width="5.1" height="1.6" rx=".8" fill="#6A5F84" opacity=".7"/><rect x="569.2" y="711.4" width="10.3" height="1.6" rx=".8" fill="#3E3754" opacity=".7"/><rect x="139.9" y="766.7" width="10.6" height="1.6" rx=".8" fill="#6A5F84" opacity=".7"/><rect x="369.3" y="794.9" width="6.7" height="1.6" rx=".8" fill="#3E3754" opacity=".7"/><rect x="128" y="776.8" width="7.4" height="1.6" rx=".8" fill="#6A5F84" opacity=".7"/><rect x="499.6" y="739.2" width="8.4" height="1.6" rx=".8" fill="#6A5F84" opacity=".7"/><rect x="261.1" y="815.5" width="10.6" height="1.6" rx=".8" fill="#6A5F84" opacity=".7"/><rect x="376.3" y="833.8" width="7.9" height="1.6" rx=".8" fill="#6A5F84" opacity=".7"/><rect x="412.1" y="756.9" width="4.3" height="1.6" rx=".8" fill="#3E3754" opacity=".7"/><rect x="581.7" y="731.5" width="9.7" height="1.6" rx=".8" fill="#3E3754" opacity=".7"/><rect x="302.2" y="758.4" width="9.4" height="1.6" rx=".8" fill="#6A5F84" opacity=".7"/><rect x="692.1" y="774.4" width="7.4" height="1.6" rx=".8" fill="#3E3754" opacity=".7"/><rect x="837.2" y="779.2" width="7.7" height="1.6" rx=".8" fill="#6A5F84" opacity=".7"/><rect x="1493.1" y="771.8" width="5.6" height="1.6" rx=".8" fill="#3E3754" opacity=".7"/><rect x="1182.1" y="757.6" width="7" height="1.6" rx=".8" fill="#6A5F84" opacity=".7"/><rect x="616.7" y="785.7" width="8.2" height="1.6" rx=".8" fill="#3E3754" opacity=".7"/><rect x="1127.8" y="741.1" width="9.5" height="1.6" rx=".8" fill="#6A5F84" opacity=".7"/><rect x="222.5" y="793.8" width="3.6" height="1.6" rx=".8" fill="#3E3754" opacity=".7"/><rect x="546" y="726.7" width="8.4" height="1.6" rx=".8" fill="#6A5F84" opacity=".7"/><rect x="1595.7" y="768" width="4.3" height="1.6" rx=".8" fill="#6A5F84" opacity=".7"/><rect x="1208.1" y="785.3" width="10.6" height="1.6" rx=".8" fill="#3E3754" opacity=".7"/><rect x="96.6" y="735.1" width="5.8" height="1.6" rx=".8" fill="#3E3754" opacity=".7"/><rect x="1098.4" y="753.5" width="6.5" height="1.6" rx=".8" fill="#6A5F84" opacity=".7"/><rect x="1229.8" y="826.2" width="3.1" height="1.6" rx=".8" fill="#3E3754" opacity=".7"/><rect x="1075.6" y="774.9" width="9.2" height="1.6" rx=".8" fill="#6A5F84" opacity=".7"/><rect x="1236.7" y="769.5" width="4" height="1.6" rx=".8" fill="#3E3754" opacity=".7"/><rect x="1278.1" y="714.9" width="7.6" height="1.6" rx=".8" fill="#6A5F84" opacity=".7"/><rect x="727.9" y="758.2" width="3.1" height="1.6" rx=".8" fill="#3E3754" opacity=".7"/><rect x="215" y="782.9" width="8.5" height="1.6" rx=".8" fill="#3E3754" opacity=".7"/><rect x="1447.2" y="788.3" width="6.5" height="1.6" rx=".8" fill="#3E3754" opacity=".7"/><rect x="1202.7" y="762.9" width="10.4" height="1.6" rx=".8" fill="#6A5F84" opacity=".7"/><rect x="797.9" y="809.3" width="10.5" height="1.6" rx=".8" fill="#3E3754" opacity=".7"/><rect x="1520.9" y="814.8" width="9.2" height="1.6" rx=".8" fill="#6A5F84" opacity=".7"/><rect x="1466.4" y="712.1" width="8.7" height="1.6" rx=".8" fill="#6A5F84" opacity=".7"/><rect x="417" y="768" width="5.6" height="1.6" rx=".8" fill="#6A5F84" opacity=".7"/><rect x="1008.2" y="845.8" width="7.8" height="1.6" rx=".8" fill="#3E3754" opacity=".7"/><rect x="1013.7" y="741.9" width="3.9" height="1.6" rx=".8" fill="#3E3754" opacity=".7"/><rect x="382.7" y="759.5" width="10.6" height="1.6" rx=".8" fill="#3E3754" opacity=".7"/><rect x="227" y="777.2" width="4.1" height="1.6" rx=".8" fill="#6A5F84" opacity=".7"/><rect x="1179.9" y="713.2" width="8.2" height="1.6" rx=".8" fill="#3E3754" opacity=".7"/><rect x="737.4" y="819.5" width="5.8" height="1.6" rx=".8" fill="#6A5F84" opacity=".7"/><rect x="424.5" y="800.6" width="10.3" height="1.6" rx=".8" fill="#3E3754" opacity=".7"/><rect x="1196.2" y="742.6" width="3.4" height="1.6" rx=".8" fill="#6A5F84" opacity=".7"/><rect x="413.2" y="716.7" width="6.2" height="1.6" rx=".8" fill="#6A5F84" opacity=".7"/><rect x="401" y="748.6" width="5.9" height="1.6" rx=".8" fill="#6A5F84" opacity=".7"/><rect x="3.1" y="718.3" width="9.2" height="1.6" rx=".8" fill="#3E3754" opacity=".7"/><rect x="1210.9" y="728.9" width="4.6" height="1.6" rx=".8" fill="#3E3754" opacity=".7"/><rect x="711.8" y="777.5" width="10.5" height="1.6" rx=".8" fill="#6A5F84" opacity=".7"/><rect x="410.2" y="768.5" width="8.5" height="1.6" rx=".8" fill="#6A5F84" opacity=".7"/><rect x="827.5" y="715.8" width="10.1" height="1.6" rx=".8" fill="#3E3754" opacity=".7"/><rect x="320.3" y="796.8" width="5.8" height="1.6" rx=".8" fill="#6A5F84" opacity=".7"/><rect x="5.8" y="780.6" width="8.7" height="1.6" rx=".8" fill="#3E3754" opacity=".7"/><rect x="688.2" y="793.5" width="5.5" height="1.6" rx=".8" fill="#3E3754" opacity=".7"/><rect x="907.4" y="768.3" width="5.7" height="1.6" rx=".8" fill="#3E3754" opacity=".7"/><rect x="1596.4" y="787.6" width="5.6" height="1.6" rx=".8" fill="#3E3754" opacity=".7"/><rect x="1151.6" y="803.4" width="5" height="1.6" rx=".8" fill="#6A5F84" opacity=".7"/><rect x="124.3" y="738.2" width="7.6" height="1.6" rx=".8" fill="#6A5F84" opacity=".7"/><rect x="652" y="733.8" width="5.7" height="1.6" rx=".8" fill="#3E3754" opacity=".7"/><rect x="1321.3" y="714.1" width="11" height="1.6" rx=".8" fill="#6A5F84" opacity=".7"/><rect x="243.9" y="717.4" width="3" height="1.6" rx=".8" fill="#3E3754" opacity=".7"/><rect x="1386.8" y="795.1" width="7.8" height="1.6" rx=".8" fill="#3E3754" opacity=".7"/><rect x="660" y="762.4" width="3.2" height="1.6" rx=".8" fill="#3E3754" opacity=".7"/><rect x="871.4" y="726.1" width="6.8" height="1.6" rx=".8" fill="#3E3754" opacity=".7"/><rect x="1312" y="726.7" width="3.6" height="1.6" rx=".8" fill="#3E3754" opacity=".7"/><rect x="648.5" y="838.2" width="9.1" height="1.6" rx=".8" fill="#6A5F84" opacity=".7"/><rect x="1518.8" y="754.5" width="6.7" height="1.6" rx=".8" fill="#3E3754" opacity=".7"/><rect x="1414.9" y="834.7" width="3.9" height="1.6" rx=".8" fill="#3E3754" opacity=".7"/><rect x="1551.7" y="713.9" width="10.7" height="1.6" rx=".8" fill="#6A5F84" opacity=".7"/><rect x="352.4" y="719.8" width="8.5" height="1.6" rx=".8" fill="#6A5F84" opacity=".7"/><rect x="8.1" y="829.8" width="4.1" height="1.6" rx=".8" fill="#6A5F84" opacity=".7"/><rect x="1503.5" y="746" width="4.3" height="1.6" rx=".8" fill="#6A5F84" opacity=".7"/><rect x="155.3" y="730.3" width="6.8" height="1.6" rx=".8" fill="#6A5F84" opacity=".7"/><rect x="769.9" y="813.1" width="5.8" height="1.6" rx=".8" fill="#3E3754" opacity=".7"/><rect x="451.5" y="844.8" width="4.1" height="1.6" rx=".8" fill="#6A5F84" opacity=".7"/><rect x="798.7" y="788.2" width="9.5" height="1.6" rx=".8" fill="#6A5F84" opacity=".7"/><rect x="1231.3" y="837.6" width="8.2" height="1.6" rx=".8" fill="#6A5F84" opacity=".7"/><rect x="1144.4" y="819.2" width="6.4" height="1.6" rx=".8" fill="#3E3754" opacity=".7"/><rect x="106.1" y="815.8" width="8.6" height="1.6" rx=".8" fill="#6A5F84" opacity=".7"/><rect x="1082.7" y="796" width="7.4" height="1.6" rx=".8" fill="#6A5F84" opacity=".7"/><rect x="944.7" y="727.6" width="5.4" height="1.6" rx=".8" fill="#6A5F84" opacity=".7"/><rect x="1544.1" y="738.8" width="6" height="1.6" rx=".8" fill="#6A5F84" opacity=".7"/><rect x="634.3" y="760.8" width="9.8" height="1.6" rx=".8" fill="#3E3754" opacity=".7"/><rect x="574.3" y="759.4" width="7.6" height="1.6" rx=".8" fill="#6A5F84" opacity=".7"/><rect x="966.1" y="807.3" width="5.4" height="1.6" rx=".8" fill="#6A5F84" opacity=".7"/><rect x="972.5" y="748.3" width="7.7" height="1.6" rx=".8" fill="#3E3754" opacity=".7"/><rect x="14.7" y="709.9" width="10.5" height="1.6" rx=".8" fill="#6A5F84" opacity=".7"/><rect x="560.8" y="806.7" width="8.7" height="1.6" rx=".8" fill="#6A5F84" opacity=".7"/><g id="pb-palm"><path d="M62,700 C64,610 74,510 96,438 L106,442 C86,512 78,610 78,700Z" fill="#8A5E56"/>
    <path d="M64,660 l14,-3 M65,610 l14,-4 M70,560 l14,-4 M78,512 l14,-4 M86,472 l13,-4" stroke="#6D4747" stroke-width="3" stroke-linecap="round"/>
    <g transform="translate(96 438) rotate(-160)"><path d="M0,0 C30,-14 70,-10 100,14 C70,4 40,2 0,6Z" fill="#3F5A4C"/><path d="M0,0 C30,-14 70,-10 100,14 C70,-2 40,-6 0,0Z" fill="#5E7A52"/></g><g transform="translate(96 438) rotate(-128)"><path d="M0,0 C30,-14 70,-10 100,14 C70,4 40,2 0,6Z" fill="#3F5A4C"/><path d="M0,0 C30,-14 70,-10 100,14 C70,-2 40,-6 0,0Z" fill="#5E7A52"/></g><g transform="translate(96 438) rotate(-98)"><path d="M0,0 C30,-14 70,-10 100,14 C70,4 40,2 0,6Z" fill="#3F5A4C"/><path d="M0,0 C30,-14 70,-10 100,14 C70,-2 40,-6 0,0Z" fill="#5E7A52"/></g><g transform="translate(96 438) rotate(-60)"><path d="M0,0 C30,-14 70,-10 100,14 C70,4 40,2 0,6Z" fill="#3F5A4C"/><path d="M0,0 C30,-14 70,-10 100,14 C70,-2 40,-6 0,0Z" fill="#5E7A52"/></g><g transform="translate(96 438) rotate(-26)"><path d="M0,0 C30,-14 70,-10 100,14 C70,4 40,2 0,6Z" fill="#3F5A4C"/><path d="M0,0 C30,-14 70,-10 100,14 C70,-2 40,-6 0,0Z" fill="#5E7A52"/></g><g transform="translate(96 438) rotate(8)"><path d="M0,0 C30,-14 70,-10 100,14 C70,4 40,2 0,6Z" fill="#3F5A4C"/><path d="M0,0 C30,-14 70,-10 100,14 C70,-2 40,-6 0,0Z" fill="#5E7A52"/></g><g transform="translate(96 438) rotate(-190)"><path d="M0,0 C30,-14 70,-10 100,14 C70,4 40,2 0,6Z" fill="#3F5A4C"/><path d="M0,0 C30,-14 70,-10 100,14 C70,-2 40,-6 0,0Z" fill="#5E7A52"/></g><circle cx="94" cy="444" r="6" fill="#6D4747"/><circle cx="104" cy="446" r="6" fill="#6D4747"/></g><g id="pb-lamp">
    <circle cx="1410" cy="444" r="46" fill="#FFE7A0" opacity=".16"/><circle cx="1410" cy="444" r="26" fill="#FFE7A0" opacity=".25"/>
    <rect x="1355" y="440" width="10" height="262" fill="#16625F"/><rect x="1355" y="440" width="3.5" height="262" fill="#1F8A8A"/>
    <rect x="1349" y="684" width="22" height="18" rx="3" fill="#16625F"/>
    <path d="M1360,450 C1360,420 1410,414 1410,432" fill="none" stroke="#16625F" stroke-width="6" stroke-linecap="round"/>
    <path d="M1398,432 L1422,432 L1418,452 L1402,452Z" fill="#16625F"/>
    <rect x="1403" y="436" width="14" height="14" fill="#FFE7A0"/>
  </g><g id="pb-sign"><rect x="1096" y="604" width="8" height="98" fill="#7A4A2A"/><rect x="1170" y="604" width="8" height="98" fill="#7A4A2A"/>
    <path d="M1066,596 L1204,596 L1222,622 L1204,648 L1066,648Z" fill="#1F8A8A"/>
    <path d="M1072,601 L1201,601 L1215,622 L1201,643 L1072,643Z" fill="none" stroke="#F3E9D2" stroke-width="2"/>
    <text x="1136" y="620" text-anchor="middle" font-family="WenQuanYi Zen Hei, sans-serif" font-size="15" fill="#F3E9D2" letter-spacing="3">鹈鹕湾</text>
    <text x="1136" y="637" text-anchor="middle" font-family="DejaVu Sans, sans-serif" font-weight="700" font-size="9" fill="#F3E9D2" letter-spacing="1.5">PELICAN BAY · 2 km</text></g></g>
<g id="L-rider" transform="translate(680 790)">
  <g id="pb-wind" stroke="#FFF1DC" stroke-linecap="round" opacity=".55"><path d="M-170,-430 L-110,-430" stroke-width="3"/><path d="M-196,-404 L-150,-404" stroke-width="2.4"/><path d="M-180,-330 L-140,-330" stroke-width="2.4"/><path d="M-220,-200 L-150,-200" stroke-width="3"/><path d="M-246,-176 L-206,-176" stroke-width="2.2"/></g>
  <g id="L-shadow"><ellipse cx="-20" cy="3" rx="232" ry="11" fill="#241F33" opacity=".32"/><ellipse cx="-30" cy="2" rx="150" ry="7" fill="#241F33" opacity=".22"/></g>
  <g id="j-wingFar"><g transform="translate(30 -383) rotate(80.4)">
      
      <path d="M-14,-24 C20,-30 58,-19 84,-12 C92,-3 90,8 81,11 C60,14 30,16 0,17 C-16,14 -24,-12 -14,-24Z" fill="#c7bfba"/>
      <path d="M84,-12 C92,-3 90,8 81,11 C60,14 30,16 0,17 C14,10 40,6 62,3 C74,0 82,-5 84,-12Z" fill="#baa9a8"/>
      <path d="M60,-3 q4,6 9,1 q4,6 9,1" fill="none" stroke="#a28e9a" stroke-width="1.5" stroke-linecap="round"/>
      <path d="M8,-6 q6,7 12,1 q6,7 12,1 q6,7 12,1 q6,7 12,1" fill="none" stroke="#a28e9a" stroke-width="1.6" stroke-linecap="round"/>
      <path d="M24,8 q6,7 12,1 q6,7 12,1" fill="none" stroke="#a28e9a" stroke-width="1.6" stroke-linecap="round"/>
    </g><g transform="translate(43 -306.1) rotate(23.1)">
      
      <path d="M-8,4 C-12,14 -16,26 -14,32 C-8,28 4,14 6,4ZM5,4 C1,14 -3,23.6 -1,29.6 C5,25.6 17,14 19,4ZM18,4 C14,14 10,21.2 12,27.2 C18,23.2 30,14 32,4ZM31,4 C27,14 23,18.8 25,24.8 C31,20.8 43,14 45,4ZM44,4 C40,14 36,16.4 38,22.4 C44,18.4 56,14 58,4ZM57,4 C53,14 49,14 51,20 C57,16 69,14 71,4Z" fill="#211c24"/>
      <path d="M-4,8 L-11,27M9,8 L2,24.6M22,8 L15,22.2M35,8 L28,19.8M48,8 L41,17.4M61,8 L54,15" stroke="#393343" stroke-width="1.5" stroke-linecap="round"/>
      <path d="M-22,-15 C10,-18 50,-13 76,-8 C83,-4 83,6 75,9 C50,13 20,15 -16,16Z" fill="#c7bfba"/>
      <path d="M-16,16 C20,15 50,13 75,9 C80,7 82,4 82,1 C60,4 30,7 -14,8Z" fill="#baa9a8"/>
      <path d="M6,-3 q5,5 10,0 q5,5 10,0 q5,5 10,0 q5,5 10,0 q5,5 10,0" fill="none" stroke="#a28e9a" stroke-width="1.5" stroke-linecap="round"/>
      
    </g><g transform="translate(111 -277) rotate(15)">
      <path d="M-12,-10 C0,-15 14,-14 22,-7 C27,-1 25,7 18,11 C16,7 13,5 10,6 C14,1 12,-5 6,-6 C-1,-7 -7,-2 -10,4Z" fill="#211c24"/>
      <path d="M4,-11 C14,-11 21,-5 21,2 C21,6 19,9 17,10" fill="none" stroke="#393343" stroke-width="1.8" stroke-linecap="round"/>
      <path d="M-4,-12 C4,-14 10,-13 14,-10" fill="none" stroke="#393343" stroke-width="1.4" stroke-linecap="round"/>
      <path d="M-18,-12 C-8,-16 0,-15 6,-12 C0,-6 -8,-1 -16,6Z" fill="#c7bfba"/>
    </g></g>
  <g id="j-pedalFar"><rect x="-62" y="-84" width="24" height="8" rx="2.5" fill="#261e31"/></g>
  <g id="j-footFar"><g transform="translate(-64.1 -93.1) rotate(15.1)">
    <path d="M-8,5 L-9,-1 C-8,-7 0,-9 8,-7 C20,-6 36,-3 48,1 C53,3 53,7 49,8 C47,6 45,6 43,8 C46,10 47,13 44,15 C42,12 39,12 36,13 C37,15 36,17 33,17 C31,13 30,8 28,5Z" fill="#CF7440"/>
    <path d="M28,5 C31,9 32,13 33,17 C36,17 37,15 36,13 C39,12 42,12 44,15 C46,12 45,9 43,8 C38,8 32,6 28,5Z" fill="#A9522A"/>
    <path d="M4,-3 C20,-3 36,-1 50,4.5 M4,-1 C22,1 36,5 44,14 M4,1 C18,4 28,8 33,16" fill="none" stroke="#C4622E" stroke-width="3.4" stroke-linecap="round"/>
    <path d="M-9,4 C-9,-8 6,-9 13,-4 C15,-1 14,3 12,5 L-8,5Z" fill="#C4622E"/>
    <path d="M50,4.5 l3.5,2.8 M44,14 l1,4 M33,16 l-0.5,4" stroke="#241F33" stroke-width="1.8" stroke-linecap="round"/>
    
  </g></g>
  <g id="j-shankFar"><g><path d="M30.8,-188L-67.3,-96.6A4.8,4.8 0 0 0 -60.9,-89.6L39.5,-178.3A6.5,6.5 0 0 0 30.8,-188Z" fill="#C4622E"/>
    <path d="M13,-157.7L8,-163.2M0.1,-146L-4.9,-151.5M-12.8,-134.3L-17.8,-139.8M-25.7,-122.6L-30.7,-128.1M-38.6,-110.9L-43.6,-116.4" stroke="#a75327" stroke-width="1.2" stroke-linecap="round"/>
    
    <circle cx="35.2" cy="-183.2" r="8" fill="#C4622E"/>
    <circle cx="-64.1" cy="-93.1" r="5.6" fill="#C4622E"/></g></g>
  <g id="j-thighFar"><g transform="translate(-41 -303) rotate(57.6)">
    <path d="M70,6.5L142,6A6,6 0 0 0 142,-6L70,-6.5A6.5,6.5 0 0 0 70,6.5Z" fill="#C4622E"/>
    
    <path d="M-16,-17C-8.7,-20.8 11,-19.3 24,-19C37,-18.7 52,-16.5 62,-15C72,-13.5 81,-11.8 84,-10C87,-8.2 78.7,-5.5 80,-4C81.3,-2.5 91.3,-2.3 92,-1C92.7,0.3 84.3,2.3 84,4C83.7,5.7 91.7,7.8 90,9C88.3,10.2 82.3,9.7 74,11C65.7,12.3 52.3,15.7 40,17C27.7,18.3 10,21.2 0,19C-10,16.8 -17.3,10 -20,4C-22.7,-2 -23.3,-13.2 -16,-17Z" fill="#c7bfba"/>
    <path d="M-12,12 C20,13 50,10 74,9 L88,8 C80,11 70,12 40,17 C20,19 0,19 -14,14Z" fill="#baa9a8"/>
    <path d="M44,-6 L60,-3 L46,0 M60,4 L74,6 L62,8" fill="none" stroke="#a28e9a" stroke-width="1.6" stroke-linecap="round" stroke-linejoin="round"/>
    
  </g></g>
  <g id="j-crankFar"><path d="M0,-80L-50,-80" stroke="#7f7681" stroke-width="8" stroke-linecap="round"/></g>
  <path d="M-230.6,-109.2A106,106 0 0 1 -46.2,-170.9" fill="none" stroke="#F3E9D2" stroke-width="8" stroke-linecap="round"/>
  <path d="M-227,-114.3A103,103 0 0 1 -52.2,-172.8" fill="none" stroke="#D6C6AE" stroke-width="2.4" stroke-linecap="round"/><g id="j-wheelRear">
    <circle cx="-125" cy="-100" r="95.5" fill="none" stroke="#2A2436" stroke-width="9"/>
    <path d="M-217,-118A94,94 0 0 1 -95,-190" fill="none" stroke="#4A4058" stroke-width="2" stroke-linecap="round" opacity=".8"/>
    <circle cx="-125" cy="-100" r="89.5" fill="none" stroke="#E4DDD6" stroke-width="3"/>
    <circle cx="-125" cy="-100" r="87.3" fill="none" stroke="#9D95A0" stroke-width="1.2"/>
    <path d="M-122.9,-105.1L-37.5,-100M-123.9,-94.6L-39.2,-82.9M-120.7,-103.5L-44.2,-66.5M-126.6,-94.7L-52.2,-51.4M-119.9,-102.1L-63.1,-38.1M-128.1,-95.4L-76.4,-27.2M-119.5,-99.5L-91.5,-19.2M-129.8,-97.4L-107.9,-14.2M-119.9,-97.9L-125,-12.5M-130.4,-98.9L-142.1,-14.2M-121.5,-95.7L-158.5,-19.2M-130.3,-101.6L-173.6,-27.2M-122.9,-94.9L-186.9,-38.1M-129.6,-103.1L-197.8,-51.4M-125.5,-94.5L-205.8,-66.5M-127.6,-104.8L-210.8,-82.9M-127.1,-94.9L-212.5,-100M-126.1,-105.4L-210.8,-117.1M-129.3,-96.5L-205.8,-133.5M-123.4,-105.3L-197.8,-148.6M-130.1,-97.9L-186.9,-161.9M-121.9,-104.6L-173.6,-172.8M-130.5,-100.5L-158.5,-180.8M-120.2,-102.6L-142.1,-185.8M-130.1,-102.1L-125,-187.5M-119.6,-101.1L-107.9,-185.8M-128.5,-104.3L-91.5,-180.8M-119.7,-98.4L-76.4,-172.8M-127.1,-105.1L-63.1,-161.9M-120.4,-96.9L-52.2,-148.6M-124.5,-105.5L-44.2,-133.5M-122.4,-95.2L-39.2,-117.1" stroke="#E4DDD6" stroke-width=".9" opacity=".85"/>
    <path d="M-143.8,-64.7L-152.2,-48.8" stroke="#F28A3A" stroke-width="5" stroke-linecap="round"/>
    <path d="M-80.5,-171.2L-84.2,-165.3" stroke="#9D95A0" stroke-width="3" stroke-linecap="round"/>
    <circle cx="-125" cy="-100" r="9" fill="#9D95A0"/>
    <circle cx="-125" cy="-100" r="6" fill="#E4DDD6"/>
    <circle cx="-125" cy="-100" r="2.2" fill="#9D95A0"/>
  </g><path d="M86.2,-160.8A106,106 0 0 1 277.4,-118.4" fill="none" stroke="#F3E9D2" stroke-width="8" stroke-linecap="round"/>
  <path d="M91.8,-163.4A103,103 0 0 1 273.4,-123.2" fill="none" stroke="#D6C6AE" stroke-width="2.4" stroke-linecap="round"/><g id="j-wheelFront">
    <circle cx="173" cy="-100" r="95.5" fill="none" stroke="#2A2436" stroke-width="9"/>
    <path d="M81,-118A94,94 0 0 1 203,-190" fill="none" stroke="#4A4058" stroke-width="2" stroke-linecap="round" opacity=".8"/>
    <circle cx="173" cy="-100" r="89.5" fill="none" stroke="#E4DDD6" stroke-width="3"/>
    <circle cx="173" cy="-100" r="87.3" fill="none" stroke="#9D95A0" stroke-width="1.2"/>
    <path d="M175.1,-105.1L260.5,-100M174.1,-94.6L258.8,-82.9M177.3,-103.5L253.8,-66.5M171.4,-94.7L245.8,-51.4M178.1,-102.1L234.9,-38.1M169.9,-95.4L221.6,-27.2M178.5,-99.5L206.5,-19.2M168.2,-97.4L190.1,-14.2M178.1,-97.9L173,-12.5M167.6,-98.9L155.9,-14.2M176.5,-95.7L139.5,-19.2M167.7,-101.6L124.4,-27.2M175.1,-94.9L111.1,-38.1M168.4,-103.1L100.2,-51.4M172.5,-94.5L92.2,-66.5M170.4,-104.8L87.2,-82.9M170.9,-94.9L85.5,-100M171.9,-105.4L87.2,-117.1M168.7,-96.5L92.2,-133.5M174.6,-105.3L100.2,-148.6M167.9,-97.9L111.1,-161.9M176.1,-104.6L124.4,-172.8M167.5,-100.5L139.5,-180.8M177.8,-102.6L155.9,-185.8M167.9,-102.1L173,-187.5M178.4,-101.1L190.1,-185.8M169.5,-104.3L206.5,-180.8M178.3,-98.4L221.6,-172.8M170.9,-105.1L234.9,-161.9M177.6,-96.9L245.8,-148.6M173.5,-105.5L253.8,-133.5M175.6,-95.2L258.8,-117.1" stroke="#E4DDD6" stroke-width=".9" opacity=".85"/>
    <path d="M154.2,-64.7L145.8,-48.8" stroke="#F28A3A" stroke-width="5" stroke-linecap="round"/>
    <path d="M217.5,-171.2L213.8,-165.3" stroke="#9D95A0" stroke-width="3" stroke-linecap="round"/>
    <circle cx="173" cy="-100" r="9" fill="#9D95A0"/>
    <circle cx="173" cy="-100" r="6" fill="#E4DDD6"/>
    <circle cx="173" cy="-100" r="2.2" fill="#9D95A0"/>
  </g>
  <g id="j-frame">
    <path d="M-125,-100L-161.3,-199.6" stroke="#9D95A0" stroke-width="2.2" stroke-linecap="round"/>
    <path d="M0,-80L-125,-100" stroke="#1F8A8A" stroke-width="7.5" stroke-linecap="round"/><path d="M-43.8,-223L-125,-100" stroke="#1F8A8A" stroke-width="6.5" stroke-linecap="round"/>
    <path d="M0,-80L122.5,-212.5" stroke="#1F8A8A" stroke-width="11" stroke-linecap="round"/><path d="M-44.4,-225L113.6,-239.5" stroke="#1F8A8A" stroke-width="9" stroke-linecap="round"/><path d="M0,-80L-46.5,-232" stroke="#1F8A8A" stroke-width="10" stroke-linecap="round"/>
    <path d="M10,-95.3L108,-201.3" stroke="#48B6A8" stroke-width="2.2" stroke-linecap="round"/><path d="M-28.8,-228.9L97.6,-240.5" stroke="#48B6A8" stroke-width="2" stroke-linecap="round"/><path d="M-7.5,-94.3L-44.7,-215.9" stroke="#48B6A8" stroke-width="2" stroke-linecap="round"/><path d="M-50.3,-209.6L-115.2,-111.2" stroke="#48B6A8" stroke-width="1.6" stroke-linecap="round"/>
    <path d="M-46.5,-232L-60.5,-278" stroke="#E4DDD6" stroke-width="6.5" stroke-linecap="round"/>
    <path d="M-47,-226L-50.5,-238" stroke="#F3E9D2" stroke-width="12" stroke-linecap="round"/>
    <path d="M112,-245L125.6,-203.2" stroke="#1F8A8A" stroke-width="14" stroke-linecap="round"/>
    <path d="M115,-235.8L122.6,-212.4" stroke="#F3E9D2" stroke-width="14"/>
    <path d="M116.1,-232.5L121.5,-215.7" stroke="#16625F" stroke-width="1.4" transform="translate(-4 0)"/>
    <circle cx="0" cy="-80" r="10" fill="#16625F"/>
    <circle cx="-125" cy="-100" r="5" fill="#16625F"/>
    <path d="M-30,-105 L-2,-116" stroke="#F3E9D2" stroke-width="2.4" stroke-linecap="round" opacity=".7"/>
  </g><g id="j-fork">
    <path d="M128.1,-195.6L150.3,-127.2Q160.5,-96 173,-100" fill="none" stroke="#1F8A8A" stroke-width="7.5" stroke-linecap="round"/>
    <path d="M125.7,-195.6L147.9,-127.2" stroke="#48B6A8" stroke-width="1.8" stroke-linecap="round"/>
    <path d="M119.6,-204.2L133.6,-200.2" stroke="#E4DDD6" stroke-width="5" stroke-linecap="round"/>
    <path d="M151,-226L173,-100M212,-226L173,-100" stroke="#9D95A0" stroke-width="2.4" stroke-linecap="round"/>
  </g><g id="j-headlamp">
    <path d="M126,-214L138,-218" stroke="#9D95A0" stroke-width="4" stroke-linecap="round"/>
    <path d="M133,-228L147,-228A10,10 0 0 1 147,-208L133,-208A10,10 0 0 1 133,-228Z" fill="#E4DDD6"/>
    <path d="M133,-216L147,-216A10,10 0 0 1 147,-208L133,-208A10,10 0 0 1 124.5,-213Z" fill="#9D95A0" opacity=".55"/>
    <ellipse cx="152" cy="-218" rx="4.5" ry="10" fill="#FFF3C4"/>
    <ellipse cx="153" cy="-221" rx="1.8" ry="4" fill="#FFFFFF"/>
    <path d="M156,-226 L178,-236 L178,-200 L156,-210Z" fill="#FFF3C4" opacity=".35"/>
  </g><g id="j-saddle">
    <path d="M-86,-280 q3,5 0,8 q-3,4 0,8 M-38,-280 q3,5 0,8 q-3,4 0,8" fill="none" stroke="#9D95A0" stroke-width="2.4"/>
    <path d="M-90,-266L-60.5,-278L-34,-266" fill="none" stroke="#9D95A0" stroke-width="2.4"/>
    <path d="M-101,-283 C-101,-290 -90,-292 -70,-291 C-50,-290 -34,-288 -23,-285 C-22,-282 -30,-279 -44,-279 L-92,-278 C-99,-278 -101,-280 -101,-283Z" fill="#7A4A2A"/>
    <path d="M-97,-286 C-88,-290 -60,-290 -40,-288" fill="none" stroke="#A0643A" stroke-width="2" stroke-linecap="round"/>
  </g><g id="j-basket">
    <path d="M131,-270L146,-262" stroke="#9D95A0" stroke-width="3.5" stroke-linecap="round"/>
    <g transform="translate(196 -300) rotate(-62)">
      <path d="M-33.28,0 L-46.08,-11.52 L-43.52,0 L-46.08,11.52Z" fill="#5E7F9E"/>
      <path d="M29.4,0C29.4,-3.4 20.4,-9.5 12.8,-10.9C5.2,-12.3 -8,-10.1 -16,-8.3C-24,-6.5 -35.2,-2.7 -35.2,0C-35.2,2.7 -24,6.1 -16,7.7C-8,9.3 5.2,10.9 12.8,9.6C20.4,8.3 29.4,3.4 29.4,0Z" fill="#83a6be"/>
      <path d="M26.88,1.28Q6.4,6.4 -28.8,1.28Q-6.4,10.24 12.8,9.6Z" fill="#5E7F9E" opacity=".45"/>
      <path d="M19.2,-6.4Q0,-11.52 -19.2,-6.4" fill="none" stroke="#CFE3EA" stroke-width="2.2" stroke-linecap="round"/>
      <path d="M-3.2,-8.96L-11.52,-17.28L-17.92,-7.68Z" fill="#5E7F9E"/>
      
    </g>
    <g transform="translate(168 -305) rotate(-118)">
      <path d="M-36.4,0 L-50.4,-12.6 L-47.6,0 L-50.4,12.6Z" fill="#5E7F9E"/>
      <path d="M32.2,0C32.2,-3.7 22.3,-10.4 14,-11.9C5.7,-13.4 -8.7,-11.1 -17.5,-9.1C-26.2,-7.1 -38.5,-2.9 -38.5,0C-38.5,2.9 -26.2,6.7 -17.5,8.4C-8.7,10.2 5.7,11.9 14,10.5C22.3,9.1 32.2,3.7 32.2,0Z" fill="#8FB3C9"/>
      <path d="M29.4,1.4000000000000001Q7,7 -31.5,1.4000000000000001Q-7,11.200000000000001 14,10.5Z" fill="#5E7F9E" opacity=".45"/>
      <path d="M21,-7Q0,-12.6 -21,-7" fill="none" stroke="#CFE3EA" stroke-width="2.2" stroke-linecap="round"/>
      <path d="M-3.5,-9.8L-12.6,-18.900000000000002L-19.6,-8.4Z" fill="#5E7F9E"/>
      <circle cx="21" cy="-2.45" r="3.5" fill="#FFFFFF"/><circle cx="21.7" cy="-2.1" r="1.75" fill="#241F33"/>
      <path d="M14,-7Q11.9,0 14,7" fill="none" stroke="#5E7F9E" stroke-width="1.4"/>
    </g>
    <path d="M140,-292L222,-292L218,-226L144,-226Z" fill="#C89B5E"/>
    <path d="M142,-280L220,-280" stroke="#946A3C" stroke-width="1.6"/><path d="M142,-269L220,-269" stroke="#946A3C" stroke-width="1.6"/><path d="M142,-258L220,-258" stroke="#946A3C" stroke-width="1.6"/><path d="M142,-247L220,-247" stroke="#946A3C" stroke-width="1.6"/><path d="M142,-236L220,-236" stroke="#946A3C" stroke-width="1.6"/><path d="M150,-284L151,-229" stroke="#E2B978" stroke-width="3" opacity=".75"/><path d="M162,-284L163,-229" stroke="#E2B978" stroke-width="3" opacity=".75"/><path d="M174,-284L175,-229" stroke="#E2B978" stroke-width="3" opacity=".75"/><path d="M186,-284L187,-229" stroke="#E2B978" stroke-width="3" opacity=".75"/><path d="M198,-284L199,-229" stroke="#E2B978" stroke-width="3" opacity=".75"/><path d="M210,-284L211,-229" stroke="#E2B978" stroke-width="3" opacity=".75"/>
    <path d="M204,-288L222,-288L218,-226L202,-226Z" fill="#946A3C" opacity=".35"/>
    <rect x="137" y="-296" width="88" height="9" rx="4.5" fill="#E2B978"/>
    <rect x="139" y="-231" width="84" height="6" rx="3" fill="#946A3C"/>
    <g transform="translate(210 -289) rotate(-18)">
      <path d="M-23.92,0 L-33.12,-8.28 L-31.28,0 L-33.12,8.28Z" fill="#B77B6A"/>
      <path d="M21.2,0C21.2,-2.5 14.6,-6.8 9.2,-7.8C3.8,-8.8 -5.7,-7.3 -11.5,-6C-17.2,-4.7 -25.3,-1.9 -25.3,0C-25.3,1.9 -17.2,4.4 -11.5,5.5C-5.7,6.7 3.8,7.8 9.2,6.9C14.6,6 21.2,2.5 21.2,0Z" fill="#aeacad"/>
      <path d="M19.32,0.92Q4.6000000000000005,4.6000000000000005 -20.7,0.92Q-4.6000000000000005,7.36 9.200000000000001,6.8999999999999995Z" fill="#B77B6A" opacity=".45"/>
      <path d="M13.799999999999999,-4.6000000000000005Q0,-8.28 -13.799999999999999,-4.6000000000000005" fill="none" stroke="#FBE1C4" stroke-width="2.2" stroke-linecap="round"/>
      <path d="M-2.3000000000000003,-6.44L-8.28,-12.420000000000002L-12.88,-5.52Z" fill="#B77B6A"/>
      <circle cx="13.799999999999999" cy="-1.61" r="2.3000000000000003" fill="#FFFFFF"/><circle cx="14.26" cy="-1.38" r="1.1500000000000001" fill="#241F33"/>
      <path d="M9.200000000000001,-4.6000000000000005Q7.82,0 9.200000000000001,4.6000000000000005" fill="none" stroke="#B77B6A" stroke-width="1.4"/>
    </g>
  </g>
  <g id="j-cog"><path id="cog-t" d="M-116.6,-101.7L-114.2,-100.8L-114.2,-99.2L-116.6,-98.3L-114.8,-96.6L-115.3,-95.2L-117.8,-95.2L-116.8,-92.9L-117.9,-91.8L-120.2,-92.8L-120.2,-90.3L-121.6,-89.8L-123.3,-91.6L-124.2,-89.2L-125.8,-89.2L-126.7,-91.6L-128.4,-89.8L-129.8,-90.3L-129.8,-92.8L-132.1,-91.8L-133.2,-92.9L-132.2,-95.2L-134.7,-95.2L-135.2,-96.6L-133.4,-98.3L-135.8,-99.2L-135.8,-100.8L-133.4,-101.7L-135.2,-103.4L-134.7,-104.8L-132.2,-104.8L-133.2,-107.1L-132.1,-108.2L-129.8,-107.2L-129.8,-109.7L-128.4,-110.2L-126.7,-108.4L-125.8,-110.8L-124.2,-110.8L-123.3,-108.4L-121.6,-110.2L-120.2,-109.7L-120.2,-107.2L-117.9,-108.2L-116.8,-107.1L-117.8,-104.8L-115.3,-104.8L-114.8,-103.4Z" fill="#9D95A0"/><circle cx="-125" cy="-100" r="6.5" fill="#E4DDD6"/></g><g id="j-chain"><path d="M-124.92,-109.57 L0.23,-108.55 A28.556,28.556 0 1 1 -8.69,-52.80 L-127.91,-90.88 A9.573,9.573 0 0 1 -124.92,-109.57 Z" fill="none" stroke="#241F33" stroke-width="3.2" pathLength="100" stroke-dasharray="1.1 0.9"/>
    <path d="M-124.92,-109.57 L0.23,-108.55 A28.556,28.556 0 1 1 -8.69,-52.80 L-127.91,-90.88 A9.573,9.573 0 0 1 -124.92,-109.57 Z" fill="none" stroke="#9D95A0" stroke-width="1.4" pathLength="100" stroke-dasharray="0.3 3.7"/></g><g id="j-chainring"><path id="ring-t" d="M27.5,-81.8L30.2,-80.7L30.2,-79.3L27.5,-78.2L30,-76.8L29.8,-75.4L27.1,-74.6L29.3,-72.9L29,-71.5L26.1,-71.1L28.2,-69.1L27.6,-67.8L24.8,-67.8L26.5,-65.5L25.8,-64.3L22.9,-64.7L24.4,-62.2L23.5,-61.1L20.8,-61.8L21.9,-59.2L20.8,-58.1L18.2,-59.2L18.9,-56.5L17.8,-55.6L15.3,-57.1L15.7,-54.2L14.5,-53.5L12.2,-55.2L12.2,-52.4L10.9,-51.8L8.9,-53.9L8.5,-51L7.1,-50.7L5.4,-52.9L4.6,-50.2L3.2,-50L1.8,-52.5L0.7,-49.8L-0.7,-49.8L-1.8,-52.5L-3.2,-50L-4.6,-50.2L-5.4,-52.9L-7.1,-50.7L-8.5,-51L-8.9,-53.9L-10.9,-51.8L-12.2,-52.4L-12.2,-55.2L-14.5,-53.5L-15.7,-54.2L-15.3,-57.1L-17.8,-55.6L-18.9,-56.5L-18.2,-59.2L-20.8,-58.1L-21.9,-59.2L-20.8,-61.8L-23.5,-61.1L-24.4,-62.2L-22.9,-64.7L-25.8,-64.3L-26.5,-65.5L-24.8,-67.8L-27.6,-67.8L-28.2,-69.1L-26.1,-71.1L-29,-71.5L-29.3,-72.9L-27.1,-74.6L-29.8,-75.4L-30,-76.8L-27.5,-78.2L-30.2,-79.3L-30.2,-80.7L-27.5,-81.8L-30,-83.2L-29.8,-84.6L-27.1,-85.4L-29.3,-87.1L-29,-88.5L-26.1,-88.9L-28.2,-90.9L-27.6,-92.2L-24.8,-92.2L-26.5,-94.5L-25.8,-95.7L-22.9,-95.3L-24.4,-97.8L-23.5,-98.9L-20.8,-98.2L-21.9,-100.8L-20.8,-101.9L-18.2,-100.8L-18.9,-103.5L-17.8,-104.4L-15.3,-102.9L-15.7,-105.8L-14.5,-106.5L-12.2,-104.8L-12.2,-107.6L-10.9,-108.2L-8.9,-106.1L-8.5,-109L-7.1,-109.3L-5.4,-107.1L-4.6,-109.8L-3.2,-110L-1.8,-107.5L-0.7,-110.2L0.7,-110.2L1.8,-107.5L3.2,-110L4.6,-109.8L5.4,-107.1L7.1,-109.3L8.5,-109L8.9,-106.1L10.9,-108.2L12.2,-107.6L12.2,-104.8L14.5,-106.5L15.7,-105.8L15.3,-102.9L17.8,-104.4L18.9,-103.5L18.2,-100.8L20.8,-101.9L21.9,-100.8L20.8,-98.2L23.5,-98.9L24.4,-97.8L22.9,-95.3L25.8,-95.7L26.5,-94.5L24.8,-92.2L27.6,-92.2L28.2,-90.9L26.1,-88.9L29,-88.5L29.3,-87.1L27.1,-85.4L29.8,-84.6L30,-83.2Z" fill="#9D95A0"/>
    <circle cx="0" cy="-80" r="26.5" fill="#E4DDD6"/><circle cx="0" cy="-80" r="19" fill="#16625F"/><path d="M0,-80L21.9,-72.9" stroke="#9D95A0" stroke-width="5" stroke-linecap="round"/><path d="M0,-80L0,-57" stroke="#9D95A0" stroke-width="5" stroke-linecap="round"/><path d="M0,-80L-21.9,-72.9" stroke="#9D95A0" stroke-width="5" stroke-linecap="round"/><path d="M0,-80L-13.5,-98.6" stroke="#9D95A0" stroke-width="5" stroke-linecap="round"/><path d="M0,-80L13.5,-98.6" stroke="#9D95A0" stroke-width="5" stroke-linecap="round"/>
    <circle cx="0" cy="-80" r="7" fill="#E4DDD6"/></g><g id="j-crankNear"><path d="M0,-80L50,-80" stroke="#E4DDD6" stroke-width="8" stroke-linecap="round"/>
    <path d="M4,-82.5L46,-82.5" stroke="#FFFFFF" stroke-width="1.6" stroke-linecap="round" opacity=".7"/>
    <circle cx="0" cy="-80" r="4" fill="#9D95A0"/><circle cx="50" cy="-80" r="3.4" fill="#9D95A0"/></g>
  <g id="j-tail" transform="translate(-107 -338) rotate(8)">
    <path d="M8,-16 C-8,-20 -30,-18 -48,-12 C-40,-8 -38,-6 -36,-4 C-44,-2 -50,2 -52,6 C-42,6 -36,6 -32,7 C-38,10 -42,14 -44,18 C-26,16 -8,14 8,12Z" fill="#EEDAD6"/>
    <path d="M-36,-4 C-44,-2 -50,2 -52,6 C-42,6 -36,6 -32,7 C-38,10 -42,14 -44,18 C-26,16 -10,12 0,6Z" fill="#CDB6C2"/>
  </g><g id="j-body" transform="translate(-45 -300)">
    <clipPath id="pb-bodyclip"><ellipse cx="32" cy="-50" rx="98" ry="58" transform="rotate(-18 32 -50)"/></clipPath>
    <ellipse cx="32" cy="-50" rx="98" ry="58" transform="rotate(-18 32 -50)" fill="#FFF7EE"/>
    <g clip-path="url(#pb-bodyclip)">
      <ellipse cx="18" cy="-8" rx="120" ry="44" transform="rotate(-14 18 -8)" fill="#EEDAD6"/>
      <ellipse cx="-4" cy="24" rx="110" ry="30" transform="rotate(-10 -4 24)" fill="#CDB6C2" opacity=".7"/>
      <ellipse cx="150" cy="-118" rx="70" ry="48" fill="#FFD08A" opacity=".0"/>
      <path d="M40,-110 C90,-126 132,-106 140,-72 C120,-96 90,-106 40,-110Z" fill="#FFD08A"/>
      <ellipse cx="112" cy="-88" rx="28" ry="24" fill="#FBE3A6" opacity=".75"/>
    </g>
    <g id="pb-foldwing">
      <path d="M92,-92C82,-97.3 58.7,-104 40,-104C21.3,-104 -1.7,-98 -20,-92C-38.3,-86 -56,-75.3 -70,-68C-84,-60.7 -101.7,-54.3 -104,-48C-106.3,-41.7 -96.3,-34 -84,-30C-71.7,-26 -48,-23.7 -30,-24C-12,-24.3 6.7,-27.7 24,-32C41.3,-36.3 61.3,-43.3 74,-50C86.7,-56.7 97,-65 100,-72C103,-79 102,-86.7 92,-92Z" fill="#CDB6C2" transform="translate(-3 5)" opacity=".55"/>
      <path d="M-34,-44 C-60,-46 -96,-46 -132,-38 C-110,-34 -96,-32 -86,-30 C-104,-24 -118,-20 -130,-14 C-104,-14 -86,-16 -70,-20 C-86,-10 -96,-4 -104,4 C-80,-2 -60,-10 -40,-20Z" fill="#1E1B22"/>
      <path d="M-50,-40 C-80,-42 -104,-40 -124,-37 M-60,-28 C-84,-24 -104,-19 -122,-15 M-56,-18 C-72,-12 -86,-5 -98,2" fill="none" stroke="#3E3B4C" stroke-width="1.8" stroke-linecap="round"/>
      <path d="M86,-52 C60,-38 20,-28 -30,-26 C-50,-26 -64,-30 -74,-36 C-66,-24 -50,-16 -30,-16 C0,-16 30,-22 50,-30 L44,-24 C60,-30 72,-38 86,-52Z" fill="#1E1B22"/>
      <path d="M40,-32 L34,-22 M14,-27 L10,-17 M-12,-25 L-14,-16" stroke="#3E3B4C" stroke-width="1.6" stroke-linecap="round"/>
      <path d="M92,-92C82,-97.3 58.7,-104 40,-104C21.3,-104 -1.7,-98 -20,-92C-38.3,-86 -56.7,-75.7 -70,-68C-83.3,-60.3 -99.3,-51.3 -100,-46C-100.7,-40.7 -85.7,-39 -74,-36C-62.3,-33 -46.3,-28 -30,-28C-13.7,-28 6.7,-31.7 24,-36C41.3,-40.3 61.3,-48 74,-54C86.7,-60 97,-65.7 100,-72C103,-78.3 102,-86.7 92,-92Z" fill="#FFF7EE"/>
      <path d="M-74,-36 C-50,-30 -10,-30 24,-36 C54,-42 80,-56 100,-72 C96,-60 76,-46 50,-40 C10,-32 -40,-30 -74,-36Z" fill="#EEDAD6"/>
      <path d="M-40,-60 q7,8 14,0 q7,8 14,0 q7,8 14,0 q7,8 14,0 q7,8 14,0 M-56,-46 q7,8 14,0 q7,8 14,0 q7,8 14,0 q7,8 14,0 q7,8 14,0 q7,8 14,0" fill="none" stroke="#CDB6C2" stroke-width="1.7" stroke-linecap="round"/>
      <path d="M40,-104 C0,-104 -40,-90 -70,-68" fill="none" stroke="#FFD08A" stroke-width="2" stroke-linecap="round" opacity=".7"/>
    </g>
  </g><g id="j-neck">
    <circle cx="66" cy="-384" r="27" fill="#FFF7EE"/>
    <path d="M84.8,-383C91,-382.4 88.9,-393.1 90.2,-397.2C91.5,-401.3 92.7,-406.7 93.5,-410.6C94.2,-414.4 94.8,-419.4 95,-422.9C95.3,-426.4 95.4,-430.9 95.3,-434C95.3,-437.2 95,-441.1 94.9,-443.9C94.7,-446.7 94.3,-450.1 94.1,-452.5C93.8,-455 93.5,-457.9 93.4,-460C93.2,-462.1 93.1,-464.6 93.1,-466.3C93.1,-468.1 93.2,-470.2 93.4,-471.7C93.7,-473.3 94.1,-475.1 94.6,-476.5C95.1,-478 95.9,-479.9 96.8,-481.4C97.8,-482.9 99.3,-485.1 100.9,-486.8C102.5,-488.5 105,-491 107.5,-492.9C109.9,-494.8 117.5,-495.6 117.1,-499.7C116.7,-503.8 108.5,-518.4 104.9,-520.3C101.2,-522.3 96,-515.1 92.7,-512.7C89.4,-510.4 85.5,-507.3 82.9,-504.8C80.3,-502.3 77.2,-498.9 75.3,-496.3C73.3,-493.7 71.1,-490 69.8,-487.2C68.4,-484.5 67.1,-480.7 66.3,-477.9C65.5,-475.1 64.9,-471.4 64.5,-468.8C64,-466.1 63.8,-462.6 63.6,-460C63.4,-457.4 63.4,-454.1 63.2,-451.6C63.1,-449.2 63,-446 62.8,-443.6C62.7,-441.2 62.4,-438 62.1,-435.6C61.7,-433.2 61.2,-430.1 60.6,-427.7C60,-425.2 59.1,-422 58.2,-419.4C57.3,-416.9 55.9,-413.5 54.6,-410.7C53.2,-407.9 44.6,-405.2 49.2,-401C53.7,-396.9 78.7,-383.5 84.8,-383Z" fill="#FFF7EE"/>
    <path d="M49.2,-401C48.3,-403.4 53.2,-407.9 54.6,-410.7C55.9,-413.5 57.3,-416.9 58.2,-419.4C59.1,-422 60,-425.2 60.6,-427.7C61.2,-430.1 61.7,-433.2 62.1,-435.6C62.4,-438 62.7,-441.2 62.8,-443.6C63,-446 63.1,-449.2 63.2,-451.6C63.4,-454.1 63.4,-457.4 63.6,-460C63.8,-462.6 64,-466.1 64.5,-468.8C64.9,-471.4 65.5,-475.1 66.3,-477.9C67.1,-480.7 68.4,-484.5 69.8,-487.2C71.1,-490 73.3,-493.7 75.3,-496.3C77.2,-498.9 80.3,-502.3 82.9,-504.8C85.5,-507.3 89.4,-510.4 92.7,-512.7C96,-515.1 102.4,-520.2 104.9,-520.3C107.3,-520.5 109.9,-515.8 108.8,-513.7C107.7,-511.6 100.4,-508.6 97.4,-506.4C94.4,-504.2 90.9,-501.3 88.6,-499C86.3,-496.8 83.8,-493.8 82.2,-491.5C80.5,-489.2 78.8,-486.1 77.7,-483.8C76.6,-481.5 75.6,-478.3 75,-475.9C74.4,-473.5 73.9,-470.4 73.6,-468C73.3,-465.6 73.2,-462.4 73.1,-460C73.1,-457.6 73.1,-454.4 73.1,-451.9C73.1,-449.5 73.1,-446.2 73.1,-443.7C73,-441.1 72.9,-437.7 72.7,-435.1C72.5,-432.5 72.1,-428.9 71.6,-426.1C71.1,-423.4 70.3,-419.6 69.5,-416.6C68.6,-413.6 67.3,-409.6 65.9,-406.4C64.6,-403.2 63.1,-396.1 60.6,-395.3C58.1,-394.5 50.1,-398.7 49.2,-401Z" fill="#EEDAD6"/>
    <path d="M79.8,-385.5C79.9,-387.9 83.9,-395.1 85.2,-399.1C86.5,-403 87.8,-408.2 88.5,-411.8C89.3,-415.5 89.9,-420.2 90.2,-423.6C90.5,-426.9 90.7,-431.2 90.7,-434.2C90.7,-437.3 90.5,-441.1 90.4,-443.8C90.2,-446.6 89.9,-450 89.7,-452.4C89.6,-454.8 89.3,-457.9 89.2,-460C89.1,-462.1 89,-464.8 89.1,-466.7C89.2,-468.6 89.3,-470.9 89.6,-472.6C89.9,-474.3 90.5,-476.4 91.1,-478C91.7,-479.7 92.7,-481.8 93.8,-483.5C94.9,-485.2 96.6,-487.5 98.4,-489.3C100.1,-491.2 102.8,-493.7 105.4,-495.7C107.9,-497.7 113.7,-502 115.4,-502.6C117.2,-503.2 118.3,-501.1 117.1,-499.7C115.9,-498.2 109.9,-494.8 107.5,-492.9C105,-491 102.5,-488.5 100.9,-486.8C99.3,-485.1 97.8,-482.9 96.8,-481.4C95.9,-479.9 95.1,-478 94.6,-476.5C94.1,-475.1 93.7,-473.3 93.4,-471.7C93.2,-470.2 93.1,-468.1 93.1,-466.3C93.1,-464.6 93.2,-462.1 93.4,-460C93.5,-457.9 93.8,-455 94.1,-452.5C94.3,-450.1 94.7,-446.7 94.9,-443.9C95,-441.1 95.3,-437.2 95.3,-434C95.4,-430.9 95.3,-426.4 95,-422.9C94.8,-419.4 94.2,-414.4 93.5,-410.6C92.7,-406.7 91.5,-401.3 90.2,-397.2C88.9,-393.1 86.4,-384.7 84.8,-383C83.3,-381.2 79.8,-383.1 79.8,-385.5Z" fill="#FFD08A"/>
  </g><g id="j-scarf">
    <path d="M52,-420 C40,-428 10,-432 -18,-424 C-40,-418 -62,-424 -80,-436 C-72,-418 -60,-404 -36,-402 C-12,-400 18,-404 44,-398Z" fill="#B3334A"/>
    <path d="M52,-414 C30,-410 4,-404 -22,-392 C-44,-382 -64,-384 -86,-394 C-74,-374 -54,-366 -30,-372 C-4,-378 26,-388 50,-398Z" fill="#E4484F"/>
    <path d="M-42,-383 L-50,-368 M-62,-385 L-70,-373 M-50,-407 L-56,-396 M-30,-403 L-35,-392" stroke="#FFE7C4" stroke-width="4" stroke-linecap="round"/>
    <path d="M44,-424 C58,-430 84,-428 96,-420 C100,-408 98,-398 92,-392 C76,-392 60,-396 46,-402 C40,-410 40,-418 44,-424Z" fill="#E4484F"/>
    <path d="M46,-402 C60,-396 76,-392 92,-392 C90,-387 80,-384 72,-386 C62,-388 52,-394 46,-402Z" fill="#B3334A"/>
    <path d="M52,-420 L90,-418 M50,-411 L94,-406" stroke="#FFE7C4" stroke-width="3.5" stroke-linecap="round"/>
    <path d="M48,-410 C42,-418 46,-426 54,-426 C62,-426 64,-414 58,-406 C54,-402 50,-404 48,-410Z" fill="#B3334A"/>
  </g>
  <g id="j-bars">
    <path d="M112,-245L106.4,-262.1" stroke="#E4DDD6" stroke-width="7" stroke-linecap="round"/>
    <path d="M106.4,-262.1L132,-269" stroke="#E4DDD6" stroke-width="7" stroke-linecap="round"/>
    <path d="M132,-269C146,-272 144,-284 128,-281L110,-276" fill="none" stroke="#E4DDD6" stroke-width="5" stroke-linecap="round"/>
    <path d="M98,-273L122,-279" stroke="#7A4A2A" stroke-width="9" stroke-linecap="round"/>
    <g id="j-bell"><path d="M124,-281L124,-286" stroke="#9D95A0" stroke-width="2"/>
      <path d="M116.5,-286 A7.5,7.5 0 0 1 131.5,-286Z" fill="#F2C14E"/><rect x="115" y="-287" width="18" height="2.6" rx="1.3" fill="#D99A2B"/>
      <circle cx="121" cy="-290" r="1.6" fill="#FFF3C4"/></g>
  </g>
  <g id="j-pedalNear"><rect x="38" y="-84" width="24" height="8" rx="2.5" fill="#241F33"/>
    <rect x="41" y="-81.5" width="7" height="3" rx="1.5" fill="#F28A3A"/><rect x="52" y="-81.5" width="7" height="3" rx="1.5" fill="#F28A3A"/></g>
  <g id="j-shankNear"><g><path d="M71.2,-217.9L28.7,-90.8A4.8,4.8 0 0 0 37.6,-87.7L83.5,-213.6A6.5,6.5 0 0 0 71.2,-217.9Z" fill="#F08A3C"/>
    <path d="M70.1,-182.8L63,-185.3M64.3,-166.4L57.2,-168.9M58.6,-149.9L51.5,-152.4M52.8,-133.5L45.7,-136M47.1,-117.1L40,-119.5" stroke="#cc7533" stroke-width="1.2" stroke-linecap="round"/>
    <path d="M75,-201.6L42.3,-109.3" stroke="#F7A55C" stroke-width="2" stroke-linecap="round"/>
    <circle cx="77.3" cy="-215.8" r="8" fill="#F08A3C"/>
    <circle cx="33.1" cy="-89.3" r="5.6" fill="#F08A3C"/></g></g>
  <g id="j-footNear"><g transform="translate(33.1 -89.3) rotate(0.9)">
    <path d="M-8,5 L-9,-1 C-8,-7 0,-9 8,-7 C20,-6 36,-3 48,1 C53,3 53,7 49,8 C47,6 45,6 43,8 C46,10 47,13 44,15 C42,12 39,12 36,13 C37,15 36,17 33,17 C31,13 30,8 28,5Z" fill="#F5A05A"/>
    <path d="M28,5 C31,9 32,13 33,17 C36,17 37,15 36,13 C39,12 42,12 44,15 C46,12 45,9 43,8 C38,8 32,6 28,5Z" fill="#DE7A3A"/>
    <path d="M4,-3 C20,-3 36,-1 50,4.5 M4,-1 C22,1 36,5 44,14 M4,1 C18,4 28,8 33,16" fill="none" stroke="#F08A3C" stroke-width="3.4" stroke-linecap="round"/>
    <path d="M-9,4 C-9,-8 6,-9 13,-4 C15,-1 14,3 12,5 L-8,5Z" fill="#F08A3C"/>
    <path d="M50,4.5 l3.5,2.8 M44,14 l1,4 M33,16 l-0.5,4" stroke="#241F33" stroke-width="1.8" stroke-linecap="round"/>
    <path d="M0,-6.5 C10,-7 24,-5 40,-1" fill="none" stroke="#F7A55C" stroke-width="1.8" stroke-linecap="round"/>
  </g></g>
  <g id="j-thighNear"><g transform="translate(-37 -300) rotate(36.4)">
    <path d="M70,6.5L142,6A6,6 0 0 0 142,-6L70,-6.5A6.5,6.5 0 0 0 70,6.5Z" fill="#F08A3C"/>
    <path d="M84,-4.2 L136,-4" stroke="#F7A55C" stroke-width="2" stroke-linecap="round"/>
    <path d="M-16,-17C-8.7,-20.8 11,-19.3 24,-19C37,-18.7 52,-16.5 62,-15C72,-13.5 81,-11.8 84,-10C87,-8.2 78.7,-5.5 80,-4C81.3,-2.5 91.3,-2.3 92,-1C92.7,0.3 84.3,2.3 84,4C83.7,5.7 91.7,7.8 90,9C88.3,10.2 82.3,9.7 74,11C65.7,12.3 52.3,15.7 40,17C27.7,18.3 10,21.2 0,19C-10,16.8 -17.3,10 -20,4C-22.7,-2 -23.3,-13.2 -16,-17Z" fill="#FFF7EE"/>
    <path d="M-12,12 C20,13 50,10 74,9 L88,8 C80,11 70,12 40,17 C20,19 0,19 -14,14Z" fill="#EEDAD6"/>
    <path d="M44,-6 L60,-3 L46,0 M60,4 L74,6 L62,8" fill="none" stroke="#CDB6C2" stroke-width="1.6" stroke-linecap="round" stroke-linejoin="round"/>
    <path d="M10,-18 C40,-19 64,-15 80,-11" fill="none" stroke="#FFD08A" stroke-width="2.2" stroke-linecap="round"/>
  </g></g>
  <g id="j-pouch" transform="translate(141 -514) rotate(14) translate(6 5)">
    <path d="M-8,-4 C8,20 30,34 58,32 C84,30 104,16 116,-3 L110,-4 C96,6 70,8 40,4 C20,2 4,-1 -8,-4Z" fill="#F9C74F"/>
    <path d="M4,12 C24,30 46,34 66,31 C88,27 104,15 116,-3 C100,12 80,20 58,22 C36,23 18,19 4,12Z" fill="#F4A340"/>
    <path d="M20,6 C40,10 72,10 100,0" fill="none" stroke="#FCE08A" stroke-width="2" stroke-linecap="round"/>
  </g><g id="j-billLower" transform="translate(141 -514) rotate(14)">
    <path d="M-2,-2 L118,-3 C121,-2 122,1 118,3 L-2,5Z" fill="#D9705A"/>
  </g><g id="j-billUpper" transform="translate(141 -518) rotate(14)">
    <path d="M-6,-12 C20,-12 60,-8 112,-4 C122,-3 128,0 129,5 C130,10 126,13 122,12 C123,8 120,6 116,6 L-4,6Z" fill="#F2A48A"/>
    <path d="M-4,1 L116,3 C120,3 123,5 122,8 C119,6 116,6 116,6 L-4,6Z" fill="#D9705A"/>
    <path d="M0,-8 C30,-8 70,-5 110,-2" fill="none" stroke="#F9C2A6" stroke-width="2.6" stroke-linecap="round"/>
    <path d="M113,-4 C122,-3 128,0 129,5 C130,10 126,13 122,12 C123,8 121,5 116,4Z" fill="#E0503A"/>
    <path d="M-4,4 C4,6 8,6 12,3" fill="none" stroke="#D9705A" stroke-width="2.4" stroke-linecap="round"/>
  </g><g id="j-head" transform="translate(125 -520)">
    <clipPath id="pb-headclip"><path d="M34,-12C32.7,-17.3 27.7,-23 22,-26C16.3,-29 7,-30.3 0,-30C-7,-29.7 -15.3,-28 -20,-24C-24.7,-20 -27.7,-12 -28,-6C-28.3,0 -26,7.7 -22,12C-18,16.3 -10.7,19.3 -4,20C2.7,20.7 12.3,18.3 18,16C23.7,13.7 27.3,10.7 30,6C32.7,1.3 35.3,-6.7 34,-12Z"/></clipPath>
    <path d="M34,-12C32.7,-17.3 27.7,-23 22,-26C16.3,-29 7,-30.3 0,-30C-7,-29.7 -15.3,-28 -20,-24C-24.7,-20 -27.7,-12 -28,-6C-28.3,0 -26,7.7 -22,12C-18,16.3 -10.7,19.3 -4,20C2.7,20.7 12.3,18.3 18,16C23.7,13.7 27.3,10.7 30,6C32.7,1.3 35.3,-6.7 34,-12Z" fill="#FFF7EE"/>
    <g clip-path="url(#pb-headclip)">
      <path d="M-40,4 C-20,10 0,14 20,10 L40,40 L-40,40Z" fill="#EEDAD6"/>
      <path d="M4,-34 C22,-30 34,-20 38,-8 L50,-30Z" fill="#FFD08A"/>
      <path d="M2,-31 C20,-30 32,-20 36,-8 C32,-12 26,-22 2,-28Z" fill="#FFD08A"/>
    </g>
    <path d="M-3,-12C-1.8,-14.3 2.5,-16.7 6,-17C9.5,-17.3 14,-15.8 18,-14C22,-12.2 29,-8.7 30,-6C31,-3.3 27.3,0.7 24,2C20.7,3.3 14.2,2.8 10,2C5.8,1.2 1.2,-0.7 -1,-3C-3.2,-5.3 -4.2,-9.7 -3,-12Z" fill="#F7C1B5"/>
  </g><g id="j-eye" transform="translate(131 -527)">
    <ellipse cx="8" cy="9" rx="7" ry="3.6" fill="#F59A9A" opacity=".55"/>
    <circle r="6.4" fill="#8B1E1E"/>
    <circle cx="1" cy=".4" r="3.8" fill="#241F33"/>
    <circle cx="2.6" cy="-1.6" r="1.7" fill="#FFFFFF"/><circle cx="-1.8" cy="2.4" r=".8" fill="#FFFFFF" opacity=".8"/>
    <path d="M-7.6,-2.6 C-5,-7.6 5,-7.6 7.6,-2.6 C4,-4.8 -4,-4.8 -7.6,-2.6Z" fill="#eda595"/>
    <path d="M-7.8,-2.8 C-4.6,-7.8 4.6,-7.8 7.8,-2.8 L9.8,-4.4" fill="none" stroke="#241F33" stroke-width="1.5" stroke-linecap="round" stroke-linejoin="round"/>
  </g><g id="j-crest" transform="translate(105 -536) rotate(200)">
    <path d="M-6,-12 C6,-16 20,-18 34,-22 C28,-15 24,-11 22,-8 C32,-9 40,-6 46,-2 C36,0 28,0 24,0 C32,3 38,8 42,14 C32,12 24,9 18,7 C22,12 24,16 24,22 C14,16 6,12 0,9 C-6,4 -8,-6 -6,-12Z" fill="#FFF7EE"/>
    <path d="M24,0 C32,3 38,8 42,14 C32,12 24,9 18,7 C22,12 24,16 24,22 C14,16 6,12 0,9 C8,6 16,3 24,0Z" fill="#EEDAD6"/>
    <path d="M22,-8 C32,-9 40,-6 46,-2 C36,0 28,0 16,-2Z" fill="#EEDAD6" opacity=".55"/>
    <path d="M4,-4 L26,-10 M6,2 L30,4" stroke="#CDB6C2" stroke-width="1.3" stroke-linecap="round" opacity=".7"/>
  </g>
  <g id="j-wingNear"><g transform="translate(35 -378) rotate(83)">
      
      <path d="M-14,-24 C20,-30 58,-19 84,-12 C92,-3 90,8 81,11 C60,14 30,16 0,17 C-16,14 -24,-12 -14,-24Z" fill="#FFF7EE"/>
      <path d="M84,-12 C92,-3 90,8 81,11 C60,14 30,16 0,17 C14,10 40,6 62,3 C74,0 82,-5 84,-12Z" fill="#EEDAD6"/>
      <path d="M60,-3 q4,6 9,1 q4,6 9,1" fill="none" stroke="#CDB6C2" stroke-width="1.5" stroke-linecap="round"/>
      <path d="M8,-6 q6,7 12,1 q6,7 12,1 q6,7 12,1 q6,7 12,1" fill="none" stroke="#CDB6C2" stroke-width="1.6" stroke-linecap="round"/>
      <path d="M24,8 q6,7 12,1 q6,7 12,1" fill="none" stroke="#CDB6C2" stroke-width="1.6" stroke-linecap="round"/>
    </g><g transform="translate(44.6 -300.6) rotate(20.2)">
      <path d="M-22,-15 C10,-18 50,-13 76,-8 C83,-4 83,6 75,9 C50,13 20,15 -16,16Z" transform="translate(-2 5)" fill="#CDB6C2" opacity=".6"/>
      <path d="M-8,4 C-12,14 -16,26 -14,32 C-8,28 4,14 6,4ZM5,4 C1,14 -3,23.6 -1,29.6 C5,25.6 17,14 19,4ZM18,4 C14,14 10,21.2 12,27.2 C18,23.2 30,14 32,4ZM31,4 C27,14 23,18.8 25,24.8 C31,20.8 43,14 45,4ZM44,4 C40,14 36,16.4 38,22.4 C44,18.4 56,14 58,4ZM57,4 C53,14 49,14 51,20 C57,16 69,14 71,4Z" fill="#1E1B22"/>
      <path d="M-4,8 L-11,27M9,8 L2,24.6M22,8 L15,22.2M35,8 L28,19.8M48,8 L41,17.4M61,8 L54,15" stroke="#3E3B4C" stroke-width="1.5" stroke-linecap="round"/>
      <path d="M-22,-15 C10,-18 50,-13 76,-8 C83,-4 83,6 75,9 C50,13 20,15 -16,16Z" fill="#FFF7EE"/>
      <path d="M-16,16 C20,15 50,13 75,9 C80,7 82,4 82,1 C60,4 30,7 -14,8Z" fill="#EEDAD6"/>
      <path d="M6,-3 q5,5 10,0 q5,5 10,0 q5,5 10,0 q5,5 10,0 q5,5 10,0" fill="none" stroke="#CDB6C2" stroke-width="1.5" stroke-linecap="round"/>
      <path d="M-8,-15 C20,-17 50,-12 72,-8" fill="none" stroke="#FFD08A" stroke-width="2.6" stroke-linecap="round"/>
    </g><g transform="translate(114 -275) rotate(15)">
      <path d="M-12,-10 C0,-15 14,-14 22,-7 C27,-1 25,7 18,11 C16,7 13,5 10,6 C14,1 12,-5 6,-6 C-1,-7 -7,-2 -10,4Z" fill="#1E1B22"/>
      <path d="M4,-11 C14,-11 21,-5 21,2 C21,6 19,9 17,10" fill="none" stroke="#3E3B4C" stroke-width="1.8" stroke-linecap="round"/>
      <path d="M-4,-12 C4,-14 10,-13 14,-10" fill="none" stroke="#3E3B4C" stroke-width="1.4" stroke-linecap="round"/>
      <path d="M-18,-12 C-8,-16 0,-15 6,-12 C0,-6 -8,-1 -16,6Z" fill="#FFF7EE"/>
    </g></g></g>
<g id="L-foreground"><path d="M0,850 L1600,850 L1600,900 L0,900Z" fill="#3F5A4C"/>
    <path d="M0,846 L1600,846 L1600,854 L0,854Z" fill="#E3C9AE"/><path d="M0,852 L1600,852 L1600,856 L0,856Z" fill="#B79A92"/><path d="M-3.7,902 Q3.8,868.1 9.1,845.5 Q3,873.8 4.3,902Z" fill="#5E7A52"/><path d="M297,902 Q305.7,872 312.7,852.1 Q304.3,877 305,902Z" fill="#8FA35C"/><path d="M420.4,902 Q420.1,871.3 413.6,850.9 Q423.2,876.4 428.4,902Z" fill="#5E7A52"/><path d="M716.4,902 Q716.8,888.4 711.4,879.3 Q719.6,890.6 724.4,902Z" fill="#8FA35C"/><path d="M146.6,902 Q146.3,882.5 139.9,869.5 Q149.5,885.8 154.6,902Z" fill="#5E7A52"/><path d="M1223.5,902 Q1226.3,876.3 1224.4,859.1 Q1227.9,880.6 1231.5,902Z" fill="#5E7A52"/><path d="M1227.2,902 Q1235.3,884.8 1241.6,873.4 Q1234.3,887.7 1235.2,902Z" fill="#5E7A52"/><path d="M1173.6,902 Q1173.9,869 1168.4,847 Q1176.7,874.5 1181.6,902Z" fill="#8FA35C"/><path d="M814.4,902 Q818,886.4 817.4,876 Q819.2,889 822.4,902Z" fill="#5E7A52"/><path d="M452.7,902 Q459.6,865.2 464.1,840.6 Q459.2,871.3 460.7,902Z" fill="#5E7A52"/><path d="M296.5,902 Q297.4,871.2 292.7,850.7 Q300,876.3 304.5,902Z" fill="#5E7A52"/><path d="M1087,902 Q1088.8,873.8 1085.4,854.9 Q1090.9,878.5 1095,902Z" fill="#5E7A52"/><path d="M1159.1,902 Q1159.2,882.4 1153.4,869.4 Q1162.1,885.7 1167.1,902Z" fill="#8FA35C"/><path d="M1585.2,902 Q1589.6,867.8 1590.3,845.1 Q1590.4,873.5 1593.2,902Z" fill="#5E7A52"/><path d="M343,902 Q343.1,866 337.2,842 Q346,872 351,902Z" fill="#8FA35C"/><path d="M1592.3,902 Q1599.6,872.1 1604.6,852.2 Q1599,877.1 1600.3,902Z" fill="#5E7A52"/><path d="M1147.2,902 Q1152,877.4 1153.3,861.1 Q1152.6,881.5 1155.2,902Z" fill="#5E7A52"/><path d="M1440.9,902 Q1445,873.2 1445.2,854.1 Q1446,878 1448.9,902Z" fill="#8FA35C"/><path d="M1305.9,902 Q1306.3,881.8 1300.9,868.4 Q1309.1,885.2 1313.9,902Z" fill="#5E7A52"/><path d="M1212.9,902 Q1221.6,885.2 1228.7,873.9 Q1220.3,888 1220.9,902Z" fill="#8FA35C"/><path d="M610.7,902 Q613.1,889 610.7,880.4 Q614.9,891.2 618.7,902Z" fill="#5E7A52"/><path d="M369.1,902 Q372.7,881.1 372.2,867.2 Q373.9,884.6 377.1,902Z" fill="#8FA35C"/><path d="M1577.8,902 Q1585.6,870.6 1591.3,849.6 Q1584.7,875.8 1585.8,902Z" fill="#5E7A52"/><path d="M590.1,902 Q593.3,888 592,878.7 Q594.7,890.3 598.1,902Z" fill="#5E7A52"/><path d="M1041.9,902 Q1047.4,870.3 1049.6,849.1 Q1047.7,875.6 1049.9,902Z" fill="#5E7A52"/><path d="M449.4,902 Q448.9,866.6 442.2,842.9 Q452.2,872.5 457.4,902Z" fill="#5E7A52"/><path d="M361,902 Q368.4,886.3 373.4,875.8 Q367.7,888.9 369,902Z" fill="#5E7A52"/><path d="M353.5,902 Q353.3,875.2 347,857.3 Q356.4,879.6 361.5,902Z" fill="#5E7A52"/><path d="M1030,902 Q1030.4,869.5 1024.9,847.8 Q1033.2,874.9 1038,902Z" fill="#5E7A52"/><path d="M564.2,902 Q563.5,890.2 556.4,882.4 Q566.8,892.2 572.2,902Z" fill="#5E7A52"/><path d="M1453.3,902 Q1453.1,868 1446.8,845.3 Q1456.2,873.7 1461.3,902Z" fill="#5E7A52"/><path d="M899,902 Q904.9,887.1 907.7,877.1 Q905,889.6 907,902Z" fill="#8FA35C"/><path d="M1274.1,902 Q1279.3,870.4 1281.1,849.3 Q1279.7,875.6 1282.1,902Z" fill="#5E7A52"/><path d="M247.3,902 Q247.4,879 241.7,863.7 Q250.3,882.8 255.3,902Z" fill="#8FA35C"/><path d="M787.3,902 Q789.7,892.9 787.2,886.8 Q791.5,894.4 795.3,902Z" fill="#5E7A52"/><path d="M623.6,902 Q629.4,893.1 631.9,887.2 Q629.5,894.6 631.6,902Z" fill="#8FA35C"/><path d="M1035.1,902 Q1043.6,872.4 1050.5,852.6 Q1042.3,877.3 1043.1,902Z" fill="#5E7A52"/><path d="M467.4,902 Q473.8,880.2 477.3,865.6 Q473.6,883.8 475.4,902Z" fill="#8FA35C"/><path d="M1030.6,902 Q1036.6,881.7 1039.5,868.2 Q1036.6,885.1 1038.6,902Z" fill="#8FA35C"/><path d="M1053.5,902 Q1053.2,870.2 1046.8,848.9 Q1056.4,875.5 1061.5,902Z" fill="#5E7A52"/><path d="M323.5,902 Q324.4,886.3 319.7,875.8 Q326.9,888.9 331.5,902Z" fill="#8FA35C"/><path d="M949.4,902 Q957.8,886.9 964.4,876.8 Q956.6,889.4 957.4,902Z" fill="#5E7A52"/><path d="M1431.6,902 Q1438,871.6 1441.7,851.3 Q1437.8,876.7 1439.6,902Z" fill="#5E7A52"/><path d="M1493,902 Q1497,876.7 1496.9,859.8 Q1498,880.9 1501,902Z" fill="#5E7A52"/><path d="M498.7,902 Q502.2,866.3 501.4,842.5 Q503.5,872.3 506.7,902Z" fill="#5E7A52"/><path d="M540,902 Q548.7,890 555.7,882 Q547.4,892 548,902Z" fill="#5E7A52"/><path d="M1091.3,902 Q1093.1,873.9 1089.8,855.2 Q1095.2,878.6 1099.3,902Z" fill="#8FA35C"/><path d="M400.2,902 Q408,884.5 413.7,872.9 Q407.1,887.4 408.2,902Z" fill="#5E7A52"/><path d="M969.2,902 Q976.8,882.3 982.2,869.2 Q976,885.6 977.2,902Z" fill="#5E7A52"/><path d="M1561.9,902 Q1563.3,879.5 1559.4,864.5 Q1565.6,883.2 1569.9,902Z" fill="#8FA35C"/><path d="M745.8,902 Q752,888.2 755.3,879 Q751.9,890.5 753.8,902Z" fill="#8FA35C"/><path d="M1398.7,902 Q1400.6,884.6 1397.5,873 Q1402.6,887.5 1406.7,902Z" fill="#5E7A52"/><path d="M271.4,902 Q271.6,869.7 266,848.2 Q274.5,875.1 279.4,902Z" fill="#5E7A52"/><path d="M381.3,902 Q382.9,878.6 379.4,863 Q385.1,882.5 389.3,902Z" fill="#8FA35C"/><path d="M1300.2,902 Q1304.9,866.3 1306,842.5 Q1305.6,872.3 1308.2,902Z" fill="#5E7A52"/><path d="M966.6,902 Q972.9,885.8 976.2,875 Q972.7,888.5 974.6,902Z" fill="#8FA35C"/><path d="M1567,902 Q1566.4,880 1559.5,865.3 Q1569.7,883.6 1575,902Z" fill="#8FA35C"/><path d="M301,902 Q302,880.4 297.4,866 Q304.5,884 309,902Z" fill="#5E7A52"/><path d="M672.7,902 Q676.3,887 675.6,876.9 Q677.5,889.5 680.7,902Z" fill="#5E7A52"/><path d="M837.9,902 Q843.1,891 845,883.6 Q843.5,892.8 845.9,902Z" fill="#5E7A52"/><path d="M814.5,902 Q821.6,891.9 826.2,885.2 Q821.1,893.6 822.5,902Z" fill="#5E7A52"/><path d="M1065.3,902 Q1073.9,875.8 1080.9,858.3 Q1072.6,880.2 1073.3,902Z" fill="#8FA35C"/><path d="M380.4,902 Q379.7,863.8 372.7,838.3 Q383.1,870.1 388.4,902Z" fill="#8FA35C"/><path d="M380.6,902 Q386.6,879.8 389.5,865 Q386.6,883.5 388.6,902Z" fill="#5E7A52"/><path d="M527.8,902 Q530,891.5 527.3,884.5 Q531.9,893.2 535.8,902Z" fill="#5E7A52"/><path d="M1415.7,902 Q1424.4,876.7 1431.4,859.9 Q1423.1,880.9 1423.7,902Z" fill="#5E7A52"/><path d="M66.6,902 Q70.5,881.1 70.3,867.2 Q71.5,884.6 74.6,902Z" fill="#5E7A52"/><path d="M1119.6,902 Q1128.4,882.4 1135.5,869.4 Q1127,885.7 1127.6,902Z" fill="#5E7A52"/><path d="M295.1,902 Q299.4,870.7 299.9,849.9 Q300.3,875.9 303.1,902Z" fill="#5E7A52"/><path d="M498.7,902 Q506.3,875.3 511.6,857.6 Q505.5,879.8 506.7,902Z" fill="#5E7A52"/><ellipse cx="88" cy="872" rx="5.6" ry="2.6" transform="rotate(0 88 872)" fill="#F07AA0"/><ellipse cx="85.7" cy="877.7" rx="5.6" ry="2.6" transform="rotate(45 85.7 877.7)" fill="#F07AA0"/><ellipse cx="80" cy="880" rx="5.6" ry="2.6" transform="rotate(90 80 880)" fill="#F07AA0"/><ellipse cx="74.3" cy="877.7" rx="5.6" ry="2.6" transform="rotate(135 74.3 877.7)" fill="#F07AA0"/><ellipse cx="72" cy="872" rx="5.6" ry="2.6" transform="rotate(180 72 872)" fill="#F07AA0"/><ellipse cx="74.3" cy="866.3" rx="5.6" ry="2.6" transform="rotate(225 74.3 866.3)" fill="#F07AA0"/><ellipse cx="80" cy="864" rx="5.6" ry="2.6" transform="rotate(270 80 864)" fill="#F07AA0"/><ellipse cx="85.7" cy="866.3" rx="5.6" ry="2.6" transform="rotate(315 85.7 866.3)" fill="#F07AA0"/><circle cx="80" cy="872" r="3.2" fill="#F9C74F"/><ellipse cx="136" cy="884" rx="4.2" ry="1.9" transform="rotate(0 136 884)" fill="#F5A3BF"/><ellipse cx="134.2" cy="888.2" rx="4.2" ry="1.9" transform="rotate(45 134.2 888.2)" fill="#F5A3BF"/><ellipse cx="130" cy="890" rx="4.2" ry="1.9" transform="rotate(90 130 890)" fill="#F5A3BF"/><ellipse cx="125.8" cy="888.2" rx="4.2" ry="1.9" transform="rotate(135 125.8 888.2)" fill="#F5A3BF"/><ellipse cx="124" cy="884" rx="4.2" ry="1.9" transform="rotate(180 124 884)" fill="#F5A3BF"/><ellipse cx="125.8" cy="879.8" rx="4.2" ry="1.9" transform="rotate(225 125.8 879.8)" fill="#F5A3BF"/><ellipse cx="130" cy="878" rx="4.2" ry="1.9" transform="rotate(270 130 878)" fill="#F5A3BF"/><ellipse cx="134.2" cy="879.8" rx="4.2" ry="1.9" transform="rotate(315 134.2 879.8)" fill="#F5A3BF"/><circle cx="130" cy="884" r="2.4" fill="#F9C74F"/><ellipse cx="307" cy="870" rx="4.9" ry="2.2" transform="rotate(0 307 870)" fill="#F07AA0"/><ellipse cx="304.9" cy="874.9" rx="4.9" ry="2.2" transform="rotate(45 304.9 874.9)" fill="#F07AA0"/><ellipse cx="300" cy="877" rx="4.9" ry="2.2" transform="rotate(90 300 877)" fill="#F07AA0"/><ellipse cx="295.1" cy="874.9" rx="4.9" ry="2.2" transform="rotate(135 295.1 874.9)" fill="#F07AA0"/><ellipse cx="293" cy="870" rx="4.9" ry="2.2" transform="rotate(180 293 870)" fill="#F07AA0"/><ellipse cx="295.1" cy="865.1" rx="4.9" ry="2.2" transform="rotate(225 295.1 865.1)" fill="#F07AA0"/><ellipse cx="300" cy="863" rx="4.9" ry="2.2" transform="rotate(270 300 863)" fill="#F07AA0"/><ellipse cx="304.9" cy="865.1" rx="4.9" ry="2.2" transform="rotate(315 304.9 865.1)" fill="#F07AA0"/><circle cx="300" cy="870" r="2.8" fill="#F9C74F"/><ellipse cx="1088" cy="876" rx="5.6" ry="2.6" transform="rotate(0 1088 876)" fill="#F07AA0"/><ellipse cx="1085.7" cy="881.7" rx="5.6" ry="2.6" transform="rotate(45 1085.7 881.7)" fill="#F07AA0"/><ellipse cx="1080" cy="884" rx="5.6" ry="2.6" transform="rotate(90 1080 884)" fill="#F07AA0"/><ellipse cx="1074.3" cy="881.7" rx="5.6" ry="2.6" transform="rotate(135 1074.3 881.7)" fill="#F07AA0"/><ellipse cx="1072" cy="876" rx="5.6" ry="2.6" transform="rotate(180 1072 876)" fill="#F07AA0"/><ellipse cx="1074.3" cy="870.3" rx="5.6" ry="2.6" transform="rotate(225 1074.3 870.3)" fill="#F07AA0"/><ellipse cx="1080" cy="868" rx="5.6" ry="2.6" transform="rotate(270 1080 868)" fill="#F07AA0"/><ellipse cx="1085.7" cy="870.3" rx="5.6" ry="2.6" transform="rotate(315 1085.7 870.3)" fill="#F07AA0"/><circle cx="1080" cy="876" r="3.2" fill="#F9C74F"/><ellipse cx="1146" cy="866" rx="4.2" ry="1.9" transform="rotate(0 1146 866)" fill="#F5A3BF"/><ellipse cx="1144.2" cy="870.2" rx="4.2" ry="1.9" transform="rotate(45 1144.2 870.2)" fill="#F5A3BF"/><ellipse cx="1140" cy="872" rx="4.2" ry="1.9" transform="rotate(90 1140 872)" fill="#F5A3BF"/><ellipse cx="1135.8" cy="870.2" rx="4.2" ry="1.9" transform="rotate(135 1135.8 870.2)" fill="#F5A3BF"/><ellipse cx="1134" cy="866" rx="4.2" ry="1.9" transform="rotate(180 1134 866)" fill="#F5A3BF"/><ellipse cx="1135.8" cy="861.8" rx="4.2" ry="1.9" transform="rotate(225 1135.8 861.8)" fill="#F5A3BF"/><ellipse cx="1140" cy="860" rx="4.2" ry="1.9" transform="rotate(270 1140 860)" fill="#F5A3BF"/><ellipse cx="1144.2" cy="861.8" rx="4.2" ry="1.9" transform="rotate(315 1144.2 861.8)" fill="#F5A3BF"/><circle cx="1140" cy="866" r="2.4" fill="#F9C74F"/><ellipse cx="1429" cy="878" rx="6.3" ry="2.9" transform="rotate(0 1429 878)" fill="#F07AA0"/><ellipse cx="1426.4" cy="884.4" rx="6.3" ry="2.9" transform="rotate(45 1426.4 884.4)" fill="#F07AA0"/><ellipse cx="1420" cy="887" rx="6.3" ry="2.9" transform="rotate(90 1420 887)" fill="#F07AA0"/><ellipse cx="1413.6" cy="884.4" rx="6.3" ry="2.9" transform="rotate(135 1413.6 884.4)" fill="#F07AA0"/><ellipse cx="1411" cy="878" rx="6.3" ry="2.9" transform="rotate(180 1411 878)" fill="#F07AA0"/><ellipse cx="1413.6" cy="871.6" rx="6.3" ry="2.9" transform="rotate(225 1413.6 871.6)" fill="#F07AA0"/><ellipse cx="1420" cy="869" rx="6.3" ry="2.9" transform="rotate(270 1420 869)" fill="#F07AA0"/><ellipse cx="1426.4" cy="871.6" rx="6.3" ry="2.9" transform="rotate(315 1426.4 871.6)" fill="#F07AA0"/><circle cx="1420" cy="878" r="3.6" fill="#F9C74F"/><ellipse cx="1506" cy="868" rx="4.2" ry="1.9" transform="rotate(0 1506 868)" fill="#FBE3EC"/><ellipse cx="1504.2" cy="872.2" rx="4.2" ry="1.9" transform="rotate(45 1504.2 872.2)" fill="#FBE3EC"/><ellipse cx="1500" cy="874" rx="4.2" ry="1.9" transform="rotate(90 1500 874)" fill="#FBE3EC"/><ellipse cx="1495.8" cy="872.2" rx="4.2" ry="1.9" transform="rotate(135 1495.8 872.2)" fill="#FBE3EC"/><ellipse cx="1494" cy="868" rx="4.2" ry="1.9" transform="rotate(180 1494 868)" fill="#FBE3EC"/><ellipse cx="1495.8" cy="863.8" rx="4.2" ry="1.9" transform="rotate(225 1495.8 863.8)" fill="#FBE3EC"/><ellipse cx="1500" cy="862" rx="4.2" ry="1.9" transform="rotate(270 1500 862)" fill="#FBE3EC"/><ellipse cx="1504.2" cy="863.8" rx="4.2" ry="1.9" transform="rotate(315 1504.2 863.8)" fill="#FBE3EC"/><circle cx="1500" cy="868" r="2.4" fill="#F9C74F"/><ellipse cx="1296" cy="888" rx="4.2" ry="1.9" transform="rotate(0 1296 888)" fill="#F5A3BF"/><ellipse cx="1294.2" cy="892.2" rx="4.2" ry="1.9" transform="rotate(45 1294.2 892.2)" fill="#F5A3BF"/><ellipse cx="1290" cy="894" rx="4.2" ry="1.9" transform="rotate(90 1290 894)" fill="#F5A3BF"/><ellipse cx="1285.8" cy="892.2" rx="4.2" ry="1.9" transform="rotate(135 1285.8 892.2)" fill="#F5A3BF"/><ellipse cx="1284" cy="888" rx="4.2" ry="1.9" transform="rotate(180 1284 888)" fill="#F5A3BF"/><ellipse cx="1285.8" cy="883.8" rx="4.2" ry="1.9" transform="rotate(225 1285.8 883.8)" fill="#F5A3BF"/><ellipse cx="1290" cy="882" rx="4.2" ry="1.9" transform="rotate(270 1290 882)" fill="#F5A3BF"/><ellipse cx="1294.2" cy="883.8" rx="4.2" ry="1.9" transform="rotate(315 1294.2 883.8)" fill="#F5A3BF"/><circle cx="1290" cy="888" r="2.4" fill="#F9C74F"/><path d="M1520,900 C1520,870 1550,856 1580,860 C1600,862 1610,880 1610,900Z" fill="#5C4B7C"/><path d="M1540,868 C1552,860 1570,858 1582,862 C1570,866 1556,868 1540,876Z" fill="#8E6F95"/>
    <path d="M190,900 C190,882 210,874 232,878 C248,882 252,892 252,900Z" fill="#5C4B7C"/><path d="M2,904 Q10.5,862.2 17.1,834.3 Q9.2,869.2 10,904Z" fill="#3F5A4C"/><path d="M23.1,904 Q36.9,837.3 51.6,792.9 Q33,848.4 31.1,904Z" fill="#8FA35C"/><path d="M50.3,904 Q70.3,859.2 94.2,829.4 Q63.3,866.7 58.3,904Z" fill="#B8B868"/><path d="M11.2,904 Q24.4,847.5 38.3,809.9 Q20.8,856.9 19.2,904Z" fill="#8FA35C"/><path d="M84.2,904 Q93.1,839.5 100.6,796.4 Q91.6,850.2 92.2,904Z" fill="#3F5A4C"/><path d="M75.4,904 Q94.5,841.2 117.2,799.4 Q87.9,851.7 83.4,904Z" fill="#5E7A52"/><path d="M-6.9,904 Q11.2,869.7 32.4,846.8 Q5.2,875.4 1.1,904Z" fill="#B8B868"/><path d="M105.4,904 Q99.1,871.4 83.6,849.7 Q105.3,876.9 113.4,904Z" fill="#3F5A4C"/><path d="M2.8,904 Q19.1,844.1 37.5,804.2 Q13.9,854.1 10.8,904Z" fill="#B8B868"/><path d="M5.9,904 Q19.5,850.8 33.9,815.3 Q15.7,859.7 13.9,904Z" fill="#3F5A4C"/><path d="M56.4,904 Q68.4,840.9 80.5,798.9 Q65.4,851.4 64.4,904Z" fill="#B8B868"/><path d="M12.7,904 Q31,837.3 52.4,792.9 Q24.8,848.4 20.7,904Z" fill="#5E7A52"/><path d="M7.1,904 Q27.8,863.6 52.8,836.7 Q20.5,870.4 15.1,904Z" fill="#3F5A4C"/><path d="M117,904 Q136.9,844.9 160.7,805.5 Q129.9,854.7 125,904Z" fill="#8FA35C"/><path d="M120,904 Q135,836.4 151.5,791.4 Q130.5,847.7 128,904Z" fill="#8FA35C"/><path d="M14.7,904 Q26.3,868.7 37.5,845.2 Q23.5,874.6 22.7,904Z" fill="#B8B868"/><path d="M53.1,904 Q73.2,859.2 97.4,829.3 Q66.2,866.6 61.1,904Z" fill="#5E7A52"/><path d="M32.2,904 Q26.3,847.9 11.3,810.5 Q32.2,857.2 40.2,904Z" fill="#8FA35C"/><path d="M77.2,904 Q87.7,849 97.5,812.3 Q85.4,858.2 85.2,904Z" fill="#5E7A52"/><path d="M117.9,904 Q128.6,837.4 138.7,793 Q126.2,848.5 125.9,904Z" fill="#B8B868"/><path d="M114.3,904 Q136.2,847.5 163.1,809.8 Q128.3,856.9 122.3,904Z" fill="#8FA35C"/><path d="M4.4,904 Q23.3,855.4 45.5,823 Q16.8,863.5 12.4,904Z" fill="#B8B868"/><path d="M57.4,904 Q54.8,844.7 44.8,805.1 Q59.1,854.6 65.4,904Z" fill="#5E7A52"/><path d="M124.2,904 Q117.4,855.6 101.2,823.3 Q123.8,863.7 132.2,904Z" fill="#8FA35C"/><path d="M6.2,904 Q27.6,865.1 53.8,839.2 Q19.9,871.6 14.2,904Z" fill="#5E7A52"/><path d="M123.9,904 Q144.9,866.3 170.3,841.1 Q137.4,872.6 131.9,904Z" fill="#8FA35C"/><path d="M1480.4,904 Q1465.4,861.2 1436.8,832.6 Q1475.9,868.3 1488.4,904Z" fill="#8FA35C"/><path d="M1475.1,904 Q1489,848.2 1503.8,810.9 Q1485.1,857.5 1483.1,904Z" fill="#3F5A4C"/><path d="M1460.4,904 Q1450.8,867.4 1430.4,843.1 Q1458.6,873.5 1468.4,904Z" fill="#5E7A52"/><path d="M1474.5,904 Q1466.4,868.7 1448.2,845.2 Q1473.4,874.6 1482.5,904Z" fill="#3F5A4C"/><path d="M1496.7,904 Q1493.4,827.9 1482.4,777.2 Q1498,840.6 1504.7,904Z" fill="#5E7A52"/><path d="M1456.2,904 Q1446.4,826.9 1425.6,775.4 Q1454.3,839.7 1464.2,904Z" fill="#5E7A52"/><path d="M1465.9,904 Q1461.7,846.7 1449.3,808.5 Q1466.8,856.2 1473.9,904Z" fill="#8FA35C"/><path d="M1536.9,904 Q1521.6,850 1492.7,814 Q1532.3,859 1544.9,904Z" fill="#B8B868"/><path d="M1565,904 Q1582.7,841.2 1603.4,799.4 Q1576.9,851.7 1573,904Z" fill="#5E7A52"/><path d="M1541,904 Q1534,849.2 1517.4,812.7 Q1540.5,858.3 1549,904Z" fill="#B8B868"/><path d="M1462.1,904 Q1459.9,832.2 1450.6,784.3 Q1464,844.1 1470.1,904Z" fill="#8FA35C"/><path d="M1524.3,904 Q1508.7,845.9 1479.3,807.2 Q1519.5,855.6 1532.3,904Z" fill="#5E7A52"/><path d="M1509.1,904 Q1507,848 1498,810.7 Q1511.1,857.4 1517.1,904Z" fill="#8FA35C"/><path d="M1461.5,904 Q1454.5,837.5 1438.1,793.1 Q1461,848.6 1469.5,904Z" fill="#8FA35C"/><path d="M1540.5,904 Q1530.5,850 1509.6,814 Q1538.5,859 1548.5,904Z" fill="#5E7A52"/><path d="M1474.7,904 Q1470.7,842.5 1458.6,801.6 Q1475.7,852.8 1482.7,904Z" fill="#3F5A4C"/><path d="M1525.9,904 Q1524.1,837.4 1515.5,793 Q1528,848.5 1533.9,904Z" fill="#B8B868"/><path d="M1565.6,904 Q1555.1,832.8 1533.4,785.3 Q1563.3,844.6 1573.6,904Z" fill="#8FA35C"/><path d="M1593.3,904 Q1581.8,834.5 1558.5,788.2 Q1590.6,846.1 1601.3,904Z" fill="#8FA35C"/><path d="M1523.7,904 Q1537.4,842 1551.9,800.7 Q1533.5,852.4 1531.7,904Z" fill="#B8B868"/><path d="M1544.6,904 Q1555.3,828.9 1565.3,778.8 Q1552.9,841.4 1552.6,904Z" fill="#3F5A4C"/><path d="M1507.5,904 Q1505,849 1495.2,812.3 Q1509.3,858.1 1515.5,904Z" fill="#3F5A4C"/><path d="M1492.1,904 Q1488.8,830.2 1477.7,781 Q1493.5,842.5 1500.1,904Z" fill="#5E7A52"/><path d="M1529.1,904 Q1514.6,833.6 1486.7,786.7 Q1524.8,845.3 1537.1,904Z" fill="#8FA35C"/><path d="M1497.8,904 Q1484.7,843.2 1458.9,802.7 Q1494.2,853.3 1505.8,904Z" fill="#5E7A52"/><path d="M1504.1,904 Q1521.7,848.4 1542.1,811.4 Q1515.9,857.7 1512.1,904Z" fill="#5E7A52"/><ellipse cx="49" cy="846" rx="6.3" ry="2.9" transform="rotate(0 49 846)" fill="#F07AA0"/><ellipse cx="46.4" cy="852.4" rx="6.3" ry="2.9" transform="rotate(45 46.4 852.4)" fill="#F07AA0"/><ellipse cx="40" cy="855" rx="6.3" ry="2.9" transform="rotate(90 40 855)" fill="#F07AA0"/><ellipse cx="33.6" cy="852.4" rx="6.3" ry="2.9" transform="rotate(135 33.6 852.4)" fill="#F07AA0"/><ellipse cx="31" cy="846" rx="6.3" ry="2.9" transform="rotate(180 31 846)" fill="#F07AA0"/><ellipse cx="33.6" cy="839.6" rx="6.3" ry="2.9" transform="rotate(225 33.6 839.6)" fill="#F07AA0"/><ellipse cx="40" cy="837" rx="6.3" ry="2.9" transform="rotate(270 40 837)" fill="#F07AA0"/><ellipse cx="46.4" cy="839.6" rx="6.3" ry="2.9" transform="rotate(315 46.4 839.6)" fill="#F07AA0"/><circle cx="40" cy="846" r="3.6" fill="#F9C74F"/><ellipse cx="125" cy="830" rx="4.9" ry="2.2" transform="rotate(0 125 830)" fill="#F5A3BF"/><ellipse cx="122.9" cy="834.9" rx="4.9" ry="2.2" transform="rotate(45 122.9 834.9)" fill="#F5A3BF"/><ellipse cx="118" cy="837" rx="4.9" ry="2.2" transform="rotate(90 118 837)" fill="#F5A3BF"/><ellipse cx="113.1" cy="834.9" rx="4.9" ry="2.2" transform="rotate(135 113.1 834.9)" fill="#F5A3BF"/><ellipse cx="111" cy="830" rx="4.9" ry="2.2" transform="rotate(180 111 830)" fill="#F5A3BF"/><ellipse cx="113.1" cy="825.1" rx="4.9" ry="2.2" transform="rotate(225 113.1 825.1)" fill="#F5A3BF"/><ellipse cx="118" cy="823" rx="4.9" ry="2.2" transform="rotate(270 118 823)" fill="#F5A3BF"/><ellipse cx="122.9" cy="825.1" rx="4.9" ry="2.2" transform="rotate(315 122.9 825.1)" fill="#F5A3BF"/><circle cx="118" cy="830" r="2.8" fill="#F9C74F"/><ellipse cx="1569" cy="836" rx="6.3" ry="2.9" transform="rotate(0 1569 836)" fill="#F07AA0"/><ellipse cx="1566.4" cy="842.4" rx="6.3" ry="2.9" transform="rotate(45 1566.4 842.4)" fill="#F07AA0"/><ellipse cx="1560" cy="845" rx="6.3" ry="2.9" transform="rotate(90 1560 845)" fill="#F07AA0"/><ellipse cx="1553.6" cy="842.4" rx="6.3" ry="2.9" transform="rotate(135 1553.6 842.4)" fill="#F07AA0"/><ellipse cx="1551" cy="836" rx="6.3" ry="2.9" transform="rotate(180 1551 836)" fill="#F07AA0"/><ellipse cx="1553.6" cy="829.6" rx="6.3" ry="2.9" transform="rotate(225 1553.6 829.6)" fill="#F07AA0"/><ellipse cx="1560" cy="827" rx="6.3" ry="2.9" transform="rotate(270 1560 827)" fill="#F07AA0"/><ellipse cx="1566.4" cy="829.6" rx="6.3" ry="2.9" transform="rotate(315 1566.4 829.6)" fill="#F07AA0"/><circle cx="1560" cy="836" r="3.6" fill="#F9C74F"/><ellipse cx="1487" cy="852" rx="4.9" ry="2.2" transform="rotate(0 1487 852)" fill="#FBE3EC"/><ellipse cx="1484.9" cy="856.9" rx="4.9" ry="2.2" transform="rotate(45 1484.9 856.9)" fill="#FBE3EC"/><ellipse cx="1480" cy="859" rx="4.9" ry="2.2" transform="rotate(90 1480 859)" fill="#FBE3EC"/><ellipse cx="1475.1" cy="856.9" rx="4.9" ry="2.2" transform="rotate(135 1475.1 856.9)" fill="#FBE3EC"/><ellipse cx="1473" cy="852" rx="4.9" ry="2.2" transform="rotate(180 1473 852)" fill="#FBE3EC"/><ellipse cx="1475.1" cy="847.1" rx="4.9" ry="2.2" transform="rotate(225 1475.1 847.1)" fill="#FBE3EC"/><ellipse cx="1480" cy="845" rx="4.9" ry="2.2" transform="rotate(270 1480 845)" fill="#FBE3EC"/><ellipse cx="1484.9" cy="847.1" rx="4.9" ry="2.2" transform="rotate(315 1484.9 847.1)" fill="#FBE3EC"/><circle cx="1480" cy="852" r="2.8" fill="#F9C74F"/></g>
</svg>